<mxfile host="app.diagrams.net" modified="2021-08-21T11:52:33.868Z" agent="5.0 (Windows)" etag="oUuprtMxz_4fn-2dzQsZ" version="14.9.8" type="github">
  <diagram id="C5RBs43oDa-KdzZeNtuy" name="Page-1">
    <mxGraphModel dx="2564" dy="1484" grid="1" gridSize="10" guides="0" tooltips="1" connect="1" arrows="1" fold="1" page="1" pageScale="1" pageWidth="827" pageHeight="1169" math="0" shadow="0">
      <root>
        <mxCell id="WIyWlLk6GJQsqaUBKTNV-0" />
        <mxCell id="WIyWlLk6GJQsqaUBKTNV-1" parent="WIyWlLk6GJQsqaUBKTNV-0" />
        <mxCell id="WeWkUzsG9HBNJlI6EVqi-81" value="" style="rounded=1;whiteSpace=wrap;html=1;fontSize=12;align=left;" parent="WIyWlLk6GJQsqaUBKTNV-1" vertex="1">
          <mxGeometry x="-340" y="260" width="970" height="240" as="geometry" />
        </mxCell>
        <mxCell id="ft9o0P1f0L_G19jUJm6I-268" value="" style="rounded=1;whiteSpace=wrap;html=1;" parent="WIyWlLk6GJQsqaUBKTNV-1" vertex="1">
          <mxGeometry x="-310" y="-220" width="790" height="240" as="geometry" />
        </mxCell>
        <mxCell id="ft9o0P1f0L_G19jUJm6I-271" value="" style="edgeStyle=orthogonalEdgeStyle;rounded=0;orthogonalLoop=1;jettySize=auto;html=1;" parent="WIyWlLk6GJQsqaUBKTNV-1" source="ft9o0P1f0L_G19jUJm6I-269" target="ft9o0P1f0L_G19jUJm6I-270" edge="1">
          <mxGeometry relative="1" as="geometry" />
        </mxCell>
        <mxCell id="ft9o0P1f0L_G19jUJm6I-269" value="" style="points=[[0.5,0,0],[1,0.5,0],[0.5,1,0],[0,0.5,0],[0.145,0.145,0],[0.8555,0.145,0],[0.855,0.8555,0],[0.145,0.855,0]];verticalLabelPosition=bottom;html=1;verticalAlign=top;aspect=fixed;align=center;pointerEvents=1;shape=mxgraph.cisco19.rect;prIcon=clock;fillColor=#FAFAFA;strokeColor=#005073;" parent="WIyWlLk6GJQsqaUBKTNV-1" vertex="1">
          <mxGeometry x="-300" y="-130" width="50" height="50" as="geometry" />
        </mxCell>
        <mxCell id="e01KKH6Mvmh2qi1BjheT-132" value="" style="edgeStyle=orthogonalEdgeStyle;rounded=0;orthogonalLoop=1;jettySize=auto;html=1;fontSize=11;" parent="WIyWlLk6GJQsqaUBKTNV-1" source="ft9o0P1f0L_G19jUJm6I-270" target="YDnTafMRzMyYEOUchos--1" edge="1">
          <mxGeometry relative="1" as="geometry" />
        </mxCell>
        <mxCell id="ft9o0P1f0L_G19jUJm6I-270" value="&lt;div&gt;1)Fetch based on &lt;br&gt;&lt;/div&gt;&lt;div&gt;status =&lt;b&gt;FUS_INV_RCVD&amp;nbsp;&lt;/b&gt;&lt;br&gt;&lt;/div&gt;&lt;div&gt; 2)update status =&lt;/div&gt;  &lt;b&gt;FUS_INV_PICK&lt;/b&gt;" style="rounded=1;whiteSpace=wrap;html=1;" parent="WIyWlLk6GJQsqaUBKTNV-1" vertex="1">
          <mxGeometry x="-210" y="-145" width="140" height="80" as="geometry" />
        </mxCell>
        <mxCell id="ft9o0P1f0L_G19jUJm6I-272" value="" style="rounded=1;whiteSpace=wrap;html=1;" parent="WIyWlLk6GJQsqaUBKTNV-1" vertex="1">
          <mxGeometry x="-2" y="-200" width="432" height="210" as="geometry" />
        </mxCell>
        <mxCell id="ft9o0P1f0L_G19jUJm6I-273" value="Scope T109" style="text;html=1;strokeColor=none;fillColor=none;align=center;verticalAlign=middle;whiteSpace=wrap;rounded=0;" parent="WIyWlLk6GJQsqaUBKTNV-1" vertex="1">
          <mxGeometry x="10" y="-190" width="40" height="20" as="geometry" />
        </mxCell>
        <mxCell id="WeWkUzsG9HBNJlI6EVqi-9" value="" style="edgeStyle=orthogonalEdgeStyle;rounded=0;orthogonalLoop=1;jettySize=auto;html=1;" parent="WIyWlLk6GJQsqaUBKTNV-1" source="YDnTafMRzMyYEOUchos--0" target="WeWkUzsG9HBNJlI6EVqi-6" edge="1">
          <mxGeometry relative="1" as="geometry" />
        </mxCell>
        <mxCell id="YDnTafMRzMyYEOUchos--0" value="Sucess" style="rhombus;whiteSpace=wrap;html=1;" parent="WIyWlLk6GJQsqaUBKTNV-1" vertex="1">
          <mxGeometry x="85" y="-143" width="90" height="80" as="geometry" />
        </mxCell>
        <mxCell id="YDnTafMRzMyYEOUchos--1" value="" style="shape=image;verticalLabelPosition=bottom;labelBackgroundColor=#ffffff;verticalAlign=top;aspect=fixed;imageAspect=0;image=data:image/png,iVBORw0KGgoAAAANSUhEUgAAAEEAAABZCAYAAABhckmzAAAHAUlEQVR4nO2b+09b5xnH/W81ydLmVlVzQWJbp03Vom5qVVWTpu4mhDa1P0yTJmU/RNoq7rBQaJqwNKEQoA1R2pEBEdCRCl+5hJu52Mc+Pvaxj31un/3gBAi+xMeAL+E80vcXH97L8/HzPu/7PuY4sA1HpSdQDZYFISQINa1DQfD6fDycmGRgcGhXDycma06PpqfZCARKg3Bv7P5zAAYGh0qiWmnb2tpmcuqRpTYOyCyBgwBqFQJgee42BGwIgA0BsCEANgTAhgDYEAAbAmBDAGwIgA0BOAYIJqDqJuGkxlZMZTuuIio6mmFiltSjdasoBN0wkVI67mCS5kc7NH21xp/vrdM1E8IbTBJL6ejG8aOoKARR0eiYCfLGv7ycanXt6kybG+c1H58/DhNOapb7tWoVg6AbJt2zIeo/9XGm1c0rLa7ndKbNTV2Pj8bRNZq+WufjsQ1ufC+wKqZQNMPSWC+yikDQTZMNKc37d57wg7ZsAM90qtXFax0eznd6uNDpoa7Hx2+GVri/KBFP69Y8LWBlh2ACimYwuRbnp9cX8gLIp9Otbt79YpnvAgmiik48raPqh0uiZYWgGyYJ1WApnKJjOkhdj88yhFdaXJzr8PDBwBO6Z0PccUdYEBSSmkGpObSsEHwhhb+Pb1HX4+NCpydnLihGp1pdnG13c7HLw6UuLw29fv45uc12XC0JRNkgLIVTfDS2sbsTlOJ8Pj1LolfGN5HT1iOibBC6ZkIlh39xucJFXY+P6Q3Z8u5hGcLdB5N8OzVrGcIvby1ztr208C9WF7s8dEwHiSrWdo6BwSGudvcXLcfV7n7a+m5bhvDjPv+RL4ODutDp4R8T20QsHrBKgtB980vLEH57d5XznZ4jDf/znR4u9y/x3u1l3ru9zK+/XGHUHyWhWl8O/x75pmg5tgWR5dV1yxBG/FF+9vnioaLhdKuLN3t8vHV9gcv9S/zt202m1uJMPNXjrQShhIZmMTOWLTEKCY1PpnZo6PNzrsPDaYvb49l2Nz+/sUjfnMB/V+M8Wo/j2knycDXO74dX+ePoGnNbiZIuXGU9J4iKxqg/yod3V3Fe83Guw8Or7e6iVP+pj2+WY4iKzkxApn06yNWJLf4wssqlLg8NvX7GFiVSmoGqm6R1E7VIIOU9MZomimYgJnVCssaOrBYtIaGR0gxG/VHevrnIpS4vF7syEE+3umjo9TPkFRnwRLjcv8SP+vx8NLZefRBKsXjaIBBT8QsKfkHh/TtPONeRvZQaev0MekWuPxZw9vg40+bmV7eWihqj6iFsSGmavl7nnVtLvHNriYtduXeYhl4/w74o/1mJ8dcHAf709Trds8Gixqh6CH5B4d3by5zvzFyp8903Gnr93FuUiKV0oopOOKkhpYo7NFU9hKCs0T0b4sr4JlfGN3Fe83EqD4RBr0j/fJiffLbA691efje8WtQYVQ8hrWfqkEJCQ0hofDy2zuvd3pOVEw6aayfJXx4EePvmIm9dX+CH17y82u6modfPiD/KbECmcybIJ1PbDLgjRfVZcxAME3ZkFddOktmAzI3vM+H/i/4lxldilk+LUIMQ9pthwoqYpn8+TP98mCeRVHUXVY7LVN1EVg1k1SCtl1Zfq3kIR2E2BGwIgA0BsCEANgTAhgDYEAAbAlAihEQi8dJAUBSFe2P3LbXZfeljeib7V6haNK/Ph8+/YKnNLoTA5mZOELWm7/43Z/ldKPttOGwIgA0BsCEANgSgAARd10kmk0iSRCQSQRCEqlUkEkGSJJLJJLpu/V8BsyCoqko0GiUYDNasJElCVdXSIMTj8Yo7cJSSZbl4CIZhIIpixSd9HIpGo5hm4YKtwzTNlxbAM4miWBiCJEkVn2Q5FIvF8kOo9OTKqVQqZUOIRHL/lnmiIOSLhhIgzNNc78DhKKDG4ax2w40OnC3zOT/fa9vE8IHn8y3Ofc+dNM8dDoIkSccQCSNNOSefy9GDEDIO7rUdbnTgqG9m/rnn+xyfa8Z5SBBCjlrDMUMYpunpN+isPwgh86xpJPvvM59lIi4nuByRZkWGYZQPwt6EcziU51vdWza5ID0db1+0lCJN08oZCc+UA0KedsONjvzggtlLqBQdvFdUMYQcOWF3eZ0gCHsg9u0eRY1XWNWzHF6YE3L3Nd/iPHROKGtiLAjhhbtDdlTkyxNWFA6HK3NOKDbJHTwnZPrei5ajSIq5LlIVhbDreNEnxsMBCAazk+LRQKgh5asrnCgI+eqOjpetrphPheqNDoCXvbpUqKq0CwEgFotVfLLHoXg8XhDAcxAAkskkoVCo4hM/CoVCIRRFeSGALAiQKb/LsowgCBV3pBQJgoAsy1mnQksQ9ls6nUaWZSRJQhTFqlQ0GkWSJBKJBOl0umjHi4ZwUuz/Q/saxpa/mrEAAAAASUVORK5CYII=;" parent="WIyWlLk6GJQsqaUBKTNV-1" vertex="1">
          <mxGeometry x="40" y="-119.75999999999999" width="40" height="54.76" as="geometry" />
        </mxCell>
        <mxCell id="TLlFXkzxwvOEEi02CtM3-2" value="" style="shape=image;verticalLabelPosition=bottom;labelBackgroundColor=#ffffff;verticalAlign=top;aspect=fixed;imageAspect=0;image=data:image/png,iVBORw0KGgoAAAANSUhEUgAAANsAAAAsCAYAAADsFM3hAAAJfElEQVR4nO2c62/b1hmH8z/5UxzHWeasQTcBuxTFhn2wgSZIi21VMmBD2wnIEGSwsdy6sW0QWVGuddxgrWs12dbVcRLbzX20kzSSfGVk+RLJ0izHtsToQv72QT7EEUVS1DVJ8z7AASzRPDyizsP3PYdH3ASCIBrCptDsLKhQoVL/sul5204QrwokG0E0CJKNIBoEyUYQDYJkI4gGQbIRRIMg2QiiQZBsBNEgSDaCaBAlZVMBKCqQVVRkFRU5RYWi5t8nCMI+JWVL51SEV9K4/ySJe/Pr+C6SwpPVDDIK6UYQ5WAqmwpgOZXFN1MrcA3M4Y2eKew8M45ffTaNv1xbwEhoFavPcnWPdpIkweFwoKmpqaA4HA5IkgQASCQS6OjoKPqfpqYmuFwuyLIMAPD5fAXbBEEAAMiyDJfLZbh/U1MTfD5f2e0WBAEdHR1IJBLae2bt5NsoiqK2H2tXJcdvFHx7K0X/vfBFFMUatrZ8VFXBf+euoWf0GI5cd6JzcA+OXHeiZ/Qo7s1dhaLmbNdlKJsKQM4q6Pcv480LU2hxB7D5hF8rLe4A2v8xgy8eLePu/DrEhSTCK2lkcrXXTZIktLe3a2IxBEHQOinrxFZfjM/nK+oUgiBowjFq0cETiQRcLhdcLldBm4zayY7H2vEyyMaft1rJxl9wXhRm4o9w/Oaf0Dm4x7R8cuMDTMe/s1WfoWw5RYU/msK7l0JocQfQzInGSqsngDd6prCrT8LuPgnvfR3G+bEYltYzyKlqzaKcmWz8+3ZkMxJLkiQ4nc6CjlKLDu7z+SAIQlEnMmsn32FfNtlqwYso22TsvqVk+jK+NFqyTkPZMjkV/YFl/OTsRJFkZqXZ7cePz47j0PAikhkFSo2Eq5VsRpHNCDsdXBRF087B9hdFsajt1crGojlLRVkqbXSOeCH4VJxPv6226VNr1iY+5RMEoSiy8dv5c2TWdraPlWyiKMLpdMLpdMLhcGBkZAROp1NrHzufgiCYDhHYNjsXiVRmDR8O/76kYAOTFzGxNIZjQ/twdGgv1tOrlvUWyMZmHpMZBafEJWzzBGzLtvmEH1vcfrx2ehz9gWUkMwrSufwMZjVzKeWkkVY5v77zlJKl0miij5YswgHVp5GCIBR0UnYOWNpqdBz9MfmLjn4bf2wWnY3OiVkaadR29n9mbZdl2XTMxraLoljwXbILBP8d8cKyz+Xz+bR2lBM5h6WvSor2+cPjAIBn2RS8dw6ic3APrs/0W9aryaaoQEbJzzyeH4thd5+Elu7yZGPCOc5N4K2+GXzwzRz+OZFAQs5VPIFiNkHCX03tRDazOms9ZvP5fAX78lGw2gkSffrGdzD+b0mS0NXVpXVUs3Nld7zFd159O/g69O2z2mbWdiP07dRfgI2+M1an/kJkh5N3DliK5r1zEHI2CQD4dPSI9n737T9b1qvJJmcVDIdW8YueSWzzBPJjNXd5om0+4UfzhnBbuwNo9QTQ5g3iwOA8witp5CoIcWapGH/yypWNr9vhcBhGmkpkKxVh7bSzUtkSiQScTickSSoQ3mrcaNXJWTRhKV97e7ulbJFIpOi8NUo2o/NajWxdg29rAh0b2odjQ/sKXkfWwgCAgcmLRSJaocnmj6bw0/OT2FKBYKXKD71BfHI7imXZ/jQpwyiN1EtSqhPzHVH/vllaV4lsZmM51tHqKRvb3tvbi66uLu2zVhLZ9Me1m0Z+XyJbJydbdG0OK3Icnz88js7BPZhNTAAAHi7eNIx6Vmiy7b8yj63dxjOP1RZ2q0BcWLf9gRlmYzarsYcRRve9jCZNqpGNH5/xsM4SCoXqKhuLRvz/lDNmY+c6GAwWjSP5+42VjtnqJZu+PqMxWznfp+f2AS2K3Q1f0d5fkeMAgOjanKFo7lv7LevVZHOcm6hZVGOpZMtGKvkDTwCvnxnH1Zmntj8ww0w2dkJdLhcikYhp+mY2U2Y2SVLpbKRZO/m29vb21lU2s4uO3dlIfhKCTyPZcfXyuVwu3Lp1y/Qc66OulWxWCwrsyMaOYTYbWY5sQzO+ojFadG0OQF44Pq3ky/XpLy3r1WTbcSpYs6jW7PajzRvE+/8J46/Dizg0vIgjI0/gj6Zsf2CCeF4kM6uGQg1MXtRmHvXlyHUn1tIrlvVqsr3d/xgtVaSRze58utjqCWD7ySB++dkUwitprKcVJDP5kqX1lMRLwsTSaFk3tYPR0pNzmmz9gWW0eYMVp5Kt3QHsvRzCmdEYvvQvY2B6BXJWQWAphb/fjOB2eK2i2UiCeF5Mxx/i4xvvW0r20bfvYTL2wFZ9mmzxZBbCzQh2eINlR7jmE3784V9hjC0m8fRZDqmNSLb6LIevJ1ew8/Q4eu7H67J2kiDqSU7J4m54EOfFwzh07XfoHNyDQ9d+i/PiYdwNX0FWydiuq+CmdnQtgy8eLeMd32O8dnocrd0BbLVRWj0B+IIJyFkFqayCCw/i2Hd5Frv6JLzZO4U2bxDnxmJIZRXtd3GUUhKvGppsKoCcqiKVUbCcyiK6nkFkzV6JrmWQ2hiTnR2NYefp8fyN8e4Atrj92H4yiHOjMRweWcTPPp3Ez3sm8cd/h5/jxyaIxlP1YxEUNb9wWc7m08ZfX5zGFre/IA3d5gng3GgMB68uoM0bxI5TQfzmq5DtY/BTuma/M5MkCV6vV3vNr4XUTxubLdUiiHpStWzpnIqj3z5BmzeI1o1Iph/vbfME8mlkRkEmp+ZLBWmkKIqGgjAZefn4G8xsP/1KErZqnSAaQdWyZRUVFx7E8e6lEN7pf4w2b/H9OibbVFzG2GIS9xeTmIiV/9sl/SJfAAU3XPmVEGwhLnvt9XqLZDWqjyDqRdWyqQBUNZ9OpnMq9l4OmaaR+6/Mo8Wdn1TZ3Ve80qIUZpFIluWC9YBGK+/ZvkZLegiiEdT0UXaKqmLo8Sp29Un40alxtHryYm0/mZ+NvBRM4MMbT/C3GxFceBAvq269UDz6SKaXkpePpZxsJTulkUSjqKlsKvK/ibs3v46LD/+HMxvRjE39p6u4z6YXikefHnq93oIV4UaSGj0SgSDqSc0f0qqq+WeYsBnKgemneP3MOC48iFd1b81scgQoThv1v+fiV56LovjCPtuD+H5T1yciKyoQS2YhLqxj4WkaObVy2awmM/RpI/8jTn7lOU37E8+TusrGnmmiqGr+AUC0aIR4haFn/RNEgyDZCKJBkGwE0SBINoJoECQbQTSITaHZWVChQqX+5f/GD+DONsJ7rwAAAABJRU5ErkJggg==;direction=south;" parent="WIyWlLk6GJQsqaUBKTNV-1" vertex="1">
          <mxGeometry x="400" y="-200" width="40" height="199.12" as="geometry" />
        </mxCell>
        <mxCell id="yuqtkiq20FRywVHpOGbv-0" value="" style="html=1;shadow=0;dashed=0;align=center;verticalAlign=middle;shape=mxgraph.arrows2.jumpInArrow;dy=15;dx=38;arrowHead=55;direction=north;" parent="WIyWlLk6GJQsqaUBKTNV-1" vertex="1">
          <mxGeometry x="410" y="-320" width="40" height="120" as="geometry" />
        </mxCell>
        <mxCell id="yuqtkiq20FRywVHpOGbv-1" value="" style="aspect=fixed;html=1;points=[];align=center;image;fontSize=12;image=img/lib/azure2/general/Globe_Error.svg;" parent="WIyWlLk6GJQsqaUBKTNV-1" vertex="1">
          <mxGeometry x="410" y="-350" width="30.55" height="36" as="geometry" />
        </mxCell>
        <mxCell id="yuqtkiq20FRywVHpOGbv-2" value="GLOBAL FAULT HANDLER" style="text;html=1;strokeColor=none;fillColor=none;align=center;verticalAlign=middle;whiteSpace=wrap;rounded=0;fontStyle=1" parent="WIyWlLk6GJQsqaUBKTNV-1" vertex="1">
          <mxGeometry x="440" y="140" width="120" height="16" as="geometry" />
        </mxCell>
        <mxCell id="WeWkUzsG9HBNJlI6EVqi-0" value="" style="points=[[0.145,0.145,0],[0.5,0,0],[0.855,0.145,0],[1,0.5,0],[0.855,0.855,0],[0.5,1,0],[0.145,0.855,0],[0,0.5,0]];shape=mxgraph.bpmn.event;html=1;verticalLabelPosition=bottom;labelBackgroundColor=#ffffff;verticalAlign=top;align=center;perimeter=ellipsePerimeter;outlineConnect=0;aspect=fixed;outline=eventInt;symbol=error;" parent="WIyWlLk6GJQsqaUBKTNV-1" vertex="1">
          <mxGeometry x="350" y="-210" width="47" height="47" as="geometry" />
        </mxCell>
        <mxCell id="WeWkUzsG9HBNJlI6EVqi-6" value="&lt;div&gt;Update Database Table&lt;/div&gt;&lt;div&gt;Status=&lt;br&gt;  &lt;b&gt;URA_INV_RCVD&lt;/b&gt;&lt;br&gt;&quot;&lt;br&gt;&lt;/div&gt;" style="rounded=1;whiteSpace=wrap;html=1;" parent="WIyWlLk6GJQsqaUBKTNV-1" vertex="1">
          <mxGeometry x="210" y="-144.75" width="120" height="83.5" as="geometry" />
        </mxCell>
        <mxCell id="WeWkUzsG9HBNJlI6EVqi-79" value="" style="aspect=fixed;html=1;points=[];align=center;image;fontSize=12;image=img/lib/azure2/general/Globe_Error.svg;" parent="WIyWlLk6GJQsqaUBKTNV-1" vertex="1">
          <mxGeometry x="390" y="690" width="30.55" height="36" as="geometry" />
        </mxCell>
        <mxCell id="WeWkUzsG9HBNJlI6EVqi-88" value="" style="edgeStyle=orthogonalEdgeStyle;rounded=0;orthogonalLoop=1;jettySize=auto;html=1;fontSize=12;" parent="WIyWlLk6GJQsqaUBKTNV-1" source="WeWkUzsG9HBNJlI6EVqi-83" target="WeWkUzsG9HBNJlI6EVqi-87" edge="1">
          <mxGeometry relative="1" as="geometry" />
        </mxCell>
        <mxCell id="WeWkUzsG9HBNJlI6EVqi-99" value="" style="edgeStyle=orthogonalEdgeStyle;rounded=0;orthogonalLoop=1;jettySize=auto;html=1;fontSize=12;" parent="WIyWlLk6GJQsqaUBKTNV-1" source="WeWkUzsG9HBNJlI6EVqi-83" target="WeWkUzsG9HBNJlI6EVqi-87" edge="1">
          <mxGeometry relative="1" as="geometry" />
        </mxCell>
        <mxCell id="WeWkUzsG9HBNJlI6EVqi-83" value="" style="points=[[0.5,0,0],[1,0.5,0],[0.5,1,0],[0,0.5,0],[0.145,0.145,0],[0.8555,0.145,0],[0.855,0.8555,0],[0.145,0.855,0]];verticalLabelPosition=bottom;html=1;verticalAlign=top;aspect=fixed;align=center;pointerEvents=1;shape=mxgraph.cisco19.rect;prIcon=clock;fillColor=#FAFAFA;strokeColor=#005073;" parent="WIyWlLk6GJQsqaUBKTNV-1" vertex="1">
          <mxGeometry x="-330" y="350" width="50" height="50" as="geometry" />
        </mxCell>
        <mxCell id="WeWkUzsG9HBNJlI6EVqi-86" value="" style="rounded=1;whiteSpace=wrap;html=1;fontSize=12;align=left;" parent="WIyWlLk6GJQsqaUBKTNV-1" vertex="1">
          <mxGeometry x="-110" y="270" width="720" height="211" as="geometry" />
        </mxCell>
        <mxCell id="WeWkUzsG9HBNJlI6EVqi-87" value="&lt;div style=&quot;font-size: 10px&quot;&gt;Fetch based on Status=&lt;/div&gt;&lt;div style=&quot;font-size: 10px&quot;&gt;&lt;b style=&quot;font-size: 10px&quot;&gt;URA_INV_TMOUT or &lt;br&gt;&lt;/b&gt;&lt;/div&gt;&lt;div style=&quot;font-size: 10px&quot;&gt;&lt;b style=&quot;font-size: 9px&quot;&gt;URA_INV_ONLY_RCVD&lt;/b&gt;&lt;/div&gt;&lt;div style=&quot;font-size: 10px&quot;&gt;&lt;b style=&quot;font-size: 9px&quot;&gt;&lt;br&gt;&lt;/b&gt;&lt;/div&gt;&lt;div style=&quot;font-size: 10px&quot;&gt;&lt;div style=&quot;font-size: 10px&quot;&gt; 2)update status =&lt;/div&gt;  &lt;b style=&quot;font-size: 10px&quot;&gt;URA_INV_RETRY_PICK&lt;/b&gt;&lt;/div&gt;" style="rounded=1;whiteSpace=wrap;html=1;fontSize=10;align=left;" parent="WIyWlLk6GJQsqaUBKTNV-1" vertex="1">
          <mxGeometry x="-270" y="300" width="130" height="150" as="geometry" />
        </mxCell>
        <mxCell id="WeWkUzsG9HBNJlI6EVqi-91" value="&lt;b style=&quot;font-size: 10px;&quot;&gt;Scope T106_T108&lt;/b&gt;" style="text;html=1;strokeColor=none;fillColor=none;align=center;verticalAlign=middle;whiteSpace=wrap;rounded=0;fontSize=10;" parent="WIyWlLk6GJQsqaUBKTNV-1" vertex="1">
          <mxGeometry x="-120" y="250" width="140" height="60" as="geometry" />
        </mxCell>
        <mxCell id="WeWkUzsG9HBNJlI6EVqi-92" value="" style="shape=image;verticalLabelPosition=bottom;labelBackgroundColor=#ffffff;verticalAlign=top;aspect=fixed;imageAspect=0;image=data:image/png,iVBORw0KGgoAAAANSUhEUgAAAEQAAABfCAYAAABRAmHqAAAHV0lEQVR4nO2c7W/bxh3H+W/VSRNka7MWSoIVS4YhWeCiQNcNA/aiW2Zkr4phwFDsqQNW2I7dOHGzpH7o4sKr7HZL0jhpnMRp6jq2LFmSFcvPImVZJCWKEsnPXvhhES3LpiybVsIv8AVsyXe8++B3vzvekRbwVCTB7QbsN3lAbPKA2OQBsckDYpMHxCYPiE0eEJuKgMSnp7n/cIjPev9ds75x8xbRyUlyur4zILIs4+//oqjyu/cGd8h775XJZPnq9gCx2NOKyq8DCYZCG2jXIhAAUZIqbrsHxCYPiE0eEJs8IDZ5QGzygNjkAbHJA2KTB8QmD4hNHhCbdgWIBeiGhaIbpDSDdM4gVzAxrYqqc6x9BWQNxoSk8enYEk0PF7kyLPFoRkXVjT2Bsm+AGJaFmCnw4f0FTl4N89qlIK9eDPKDtiDHPw7R0B8nkMiS32Uq+wKIZYGiG/xjcIETH09w8EKAl5rG1l3XPMbRtiC/6n3K5ccirUMJOkaSfDunktYMjCpC2hdAdMMikMhyvD20AcY6lKYxDjYHePXiSuT4Loc42xnh4qMEs7JO3qgOFNeBWMCyZvDJiMSR1vGSMDZzXdMYh1oC/O3reeblPLphkTcsrB2wcR1I3rSIJHP8aWCOwy2lo2Mr+9pDND5Y5HZMZmQ+g6qbFUNxDYhpQUjU+Ovded7sjnKsPcSBZucwXmoa4+ULAV6/FORHV8Oc7ojwm74pHk6rqLrpuFOuAMkbFiFR41xfnNcuBamrEMRmPtwS4GfXJ7nzVHaccF0BktIM3h+Y45WLznKG06g51x9HyhQcDZ8dAbk5+JhofJbBoW8cAYkt5Vam1+bKcsZ2fbojwsNp1VGUiJLErdt36O77yrGFD9q6+KCti+7efkdAJiSNwy2Bqg8Vu09eDTMQkylUAGStb068DqSjp89xhPzwysYF2E58sDnA0bYgpzsinOmMcLojwrv+KZ4sZDAcjJkdAen58g7fPAlxZ/CBIyDJbIHf35zllYvj1FUIoO6Z2eVYe4hT18L88fYc9+IKA09l7k0pDM9nWMruYQ5Z+6GSWSaQ0DjbFeVI6zgHKsglh1oCnLoWpmUoQdeTJF+ElwmKGn0Ty/z5zjytjxIk1ILjTrkCxGJlQTaeyPKHW7OcvBrmkMPh82Z3lEczKsuawf1phc9DKTqfJHnXP8XRtiBvX58knNRqA8iacgWTOTnPyHyGwbjC11Pb99hilgUlT8eIxFufTvLGPyc41h7i+x+Nc6B5jPruKA+mVS49Fvltf5yG/ji3JtP7G4hTWRaousmimmcmrRNIZDnTGSm55K/vjnI7JvO7L6d5+UKAQy0BWoYSW16jpoAUTItv5zK8d2OGX/un+MVnMQ5uMnXXd0e5N6Xw/sAcp66F+fG1MNfHlra8Rk0B0Q2L/oll3rgywYHmsbLrmPruKEFRw7TAMC0M09rWjltNASmYFkMzKuf647zTE6O+O7rpDWF9d5TBuMJf7s7z084IZ7si9AZTW16jpoBYFsg5gzk5z9SyzpOFDD/5JMyhFzWH2KXoBpcfi5zpjHC8PcTrl4IcaR2nbnWWuT+t8OH9Rd7pifHznhj9E8tb1lnTQNZ26R9Mq/QElrj8WOSXvTG+99E4b/1rkgmpxtYh1dAalGzeRMoUuB5Y4r0bM/z93gKLat5xfTUP5FkZpoWsGyyqeVKaQa7gfB/xuQJSDXlAbPKA2OQBsckDYpMHxCYPiE0eEJs8IDZ5QGyqChBFUZ4bIMPfjTAzO1tR2aJXzL4bGaH3c38RkFrzf/57gwdDQ2Sz2Z0DAcjpOqIk1axlWa4IxKZAXnR5QGzygNjkAbGpLBDLstB1HVVVkWWZ5eXlfel0Oo2iKGiahmEY1QdSKBSQZZlEIlGTTqVS5HK56gBRFMX1DlUTTKHg7HGKdSCmaZJKpVzvxG7YSbQIazCSyaTrDd9Na9r2zncE4LmNDLvz+a3PeARVVV1v6F55aWnrRykEtxu5185kMh6QZy1J0m4AGaXxhIAglHGDf0M5f4OAr2m05Of/L3sev/16w434nqm7VB1OrJf57zPViZC+86U7UqLT9s6MNvmKyvobBIQTjYwW1S1wvq8YzvrvFVhRFDeB+DkvCAiCD98JO5CV74o79+xnq5FoizZ/Q+kI3K5Tqc2fQtp1IKNNvtXGr3SuCMhwIz7BR+Pwxmha+btSwHbucnlkz4ZMSSCblFuPgHVga1FWnRwiimItA7El2tXPdgKlxoFsHFL2ROzU+3fIbJVDNvl+e9fb3OVWrO4C2eYsY0+qo02+4qnZocvtzLsMZLvrkOrmkHJ3vq4DWYdQbqW6ujir1ixjlXkb6YW7lym3SgUQ0um0643cK4uiiGmWfzFaME0TSZJcb+xeeDvnvQKAruuuN3a3vdVQKQICkMvlXG+02zCKgMDKeczztr/q9LGIkgdV2Wy25nfhFUWp6BSv7FGmrusoikIqlUKSJERR3LdOJpOk02k0TdtyJqkYyIuo/wH7/YvaR/EphAAAAABJRU5ErkJggg==;fontSize=12;" parent="WIyWlLk6GJQsqaUBKTNV-1" vertex="1">
          <mxGeometry x="30" y="300" width="50.1" height="70" as="geometry" />
        </mxCell>
        <mxCell id="WeWkUzsG9HBNJlI6EVqi-94" value="" style="shape=image;verticalLabelPosition=bottom;labelBackgroundColor=#ffffff;verticalAlign=top;aspect=fixed;imageAspect=0;image=data:image/png,iVBORw0KGgoAAAANSUhEUgAAAPEAAAA0CAYAAABb7t4OAAAKFUlEQVR4nO2d608b2RmH90/gI/8Hn0IIaUq60baWelmtWvEBpCaiq6J1slKrNrK0UpUG1G1CmpGyChADuQFRdylu0na7CdsCYbNLNBjStc0lGYy5meBiAtgO9sz8+sEc93g8Y+zxcJnd95GOFDyeOccz88z7njNzJm9Ag6qqUFUViqJQofKNKS9Ciwfehr0qb2gFVhQFsixr3SYI4pCSkZgJrKoqvF4vamtrUV5ejrKyMipUqBzCUl5ejtra2myJZVmG1+tFcG6OChUqNikZiRVFAQDU1tairKwMjY2NiEQi+5oWEARROJFIBI2NjbkSsxSaBCaIw08kEsmVmOXbBEHYA5KYIGwOSUwQNockJgibQxIThM0hiQnC5pDEBGFzSGKCsDkkMUHYHMslVgEoKpBSVKQUFbKiQlHTnxMEYT2WS7wtqwitb2N8OYanC1v4TziO5Y0kkgppTBB7gWUSqwDW4il8NrMO18N5vH13Bqe6JvGz3uf4/b8WMRzcwMZrec+jsyRJcDgcqKioyCoOhwOSJAEAotEo6uvrc75TUVEBl8uFRCIBAPB4PFnLBEEAACQSCbhcLt31Kyoq4PF4im63IAior69HNBrNfGbUTr6Noihm1mPtMlP/fsG31yza48IXURQtbK09sERiFUAipaDft4Z3umdQ1erHkeu+TKlq9aPuzy/wyddrGF3YgrgYQ2h9G0nZeo0lSUJdXV1GWIYgCJmTn8mR74B7PJ6ck00QhIzIDCvEiUajcLlccLlcWW3Sayerj7XDDhLz+80qifkL2bcdSySWFRW+lTjeux9EVasflZzArFS3+/H23Rmc7pNwpk/Cbz4N4bZ3FS+3kpBV1bKobCQx/3khEusJK0kSnE5n1glohTgejweCIOScnEbt5EWwm8RWQBJnY4nESVlFv38NP7g5lSOvUals9eH7Nyfx4dASYkkFikUiWyWxXiTWoxBxRFE0POnY+qIo5rS9VIlZ9sFSctal0NtHvGh8l4TvhuRbpu1isDbxqa8gCDmRmF/O7yOjtrN18kksiiKcTiecTiccDgeGh4fhdDoz7WP7UxAEw64SW2blxWevKEliNhIdSyroEF/ieLu/YImPXPfhaKsPb3ZOot+/hlhSwbacHtEuZQysmHQ6X59Ke1LuJqHZ6KeN7iwiA6Wn04IgZJ38bB+w9F2vHm2d/MVMu4yvm2UTevvEKJ3Wazv7nlHbE4mEYZ+YLRdFMetYsgsPf4z4CwH7XR6PJ9OOUiL9xNIIesev4srQ+2gaaEDL0Pvo9V7F+OJjU9vbDdMSKyqQVNIj0be9qzjTJ6GqrTiJmciOW1P4ed8LnP9sHn+biiKakE0PfBkNbPFX/0IisdE2re4TezyerHX5qF3qwJY2jeVPXP7fkiShubk5I4DRviq0P8tLoW0Hvw1t+/ItM2q7Htp2ai/seseMbVN7gSuG8OY8up42o2mgwbB0Pr2I5Y25oredD9MSJ1IKhoIb+MndaRxv96f7wq3FCXzkug+VOyIfa/Ojut2PGncAvxtYQGh9G7KJkGyUkvIHpViJ+W07HA7dyGjmoO+WERTSTrMSR6NROJ1OSJKUdSHJ1y/PJw+Lfiz1rauryytxOBzO2W/7JbHefi1V4vDmfCby7lZaBs9ZKrJpiX0rcfzw9jSOmhB3t/JddwDXvlzBWqL4V+fqpdNa+XaTgz/BtZ8bpbdmJDbqK7MTeC8lZst7enrQ3Nyc+a1mIrG23kLT6W9SJN4tAjcNNODO2CU8nL6HpoEGdIxeLGr7+TAt8QePFnCsTX8kutTCbkmJi1tF/yCjPnG+vp0eevdt9Qa7SpGY7//ysJMwGAzuqcQsevLfKaZPzPZ1IBDI6afz98vN9on3SmLt9vT6xMUcz4mlkV0FvjZyHolUDABwZ+wSmgYa4F0cKriOfJiW2HFryrIozFLqqp2U+jvtfrzVNYnPX7wq+gcZScwOlMvlQjgcNkxjjUZOjQa3zI5OG7WTb2tPT8+eSmx0MSt0dJofPOLTaVavVmqXy4UnT54Y7mNtlpBP4nwP2hQiMavDaHS6GIl7x6/uKvHK5jwAYDT0KPNZt/dKwXXkw7TEJzsClkXhylYfatwB/PafIfxhaAkfDi3h0vAyfCtxS34kQewlu/WFR0OPAAArm/NZn18ePGtJ/aYl/kX/LKpKSKcrW9Npc3W7HyduBPDT3hmE1rexta0glkyXFD1vTdgAXsyH0/cy/d6mgQZ8/OwjAMDrVBzXRs7nCG4FpiXu96+hxh0wnVJXt/lx9kEQXWOr+ItvDQ+fryORUuB/GcfVL8L4MrRpanSaIPabFnY/ePBc5rO5tSl8/OyjnH5wdiR2WlK/aYkjsRSEL8I46Q4UHZErr/vwq7+H4F2K4dVrGfGdyLvxWsan0+s41TmJu+ORPXm2miCsptf7/z6x+6sLmf4vY1i6r5tmd4+1WFJ/SQ97rGwm8cnXa3jXM4s3OydR3ebHsQJKdbsfnkAUiZSCeEpB90QE5x7M4XSfhHd6ZlDjDuCWdxXxlJKZl0ypNXFYGV98nCPosHQfADAXnTLsK48tDFpSv2mJVQCyqiKeVLAWT2FlK4nwZmFlZTOJ+E6f9+bYKk51TqYfGGnz42irDyduBHBrbBV/HF7Cj+5M48d3p/Hrf4Qs+cEEsRd0Pr2YI6n7qwtoGTynK7B79IJlde/763kUNT1hIpFKp8+1957jaKsvKx0/3u7HrbFVXPh8ETXuAE52BPDLvwYLroO/dWA0z1eSJLjd7szf/LPS2nvBbHva2y0EwVjemDMUVlsu/duJpVezltW97xJvyyouP15GjTuA6p3Iq+1PH2/3p9PppIKkrKaLiXRaFEXdWShMSl5q/sELfj3+/qTR9ggCSIvcMZobkbUR2EqBgQOQOKWo6J6I4L37QbzbP4sad+79ZibxTCQB71IM40sxTK0WP6NEO7kAQNaDCPyTR2wCAPvb7XYbPn5JEPnwLg6h23sFlwfPZkahu8daLOsDa9l3iVUAqppOq7dlFWcfBA3T6Q8eLaCqNT0YdqaveJF4UXkSiUTW88J6M4nYumxeql3mlhLfPg70lbWKqmJwdgOn+yR8r2MS1e1pYU/cSI9O3w9EcWVkGX8aCaN7orj/L1krKo828mplZ1J7PJ5MP5ifvE8Qh4kDlVhFek7y04Ut3Hv2X3TtRF92i2m7hPvEWlF5tH1bt9udNcOFyc+ew2UYRXaCOEgO/OXxqpp+RxcbsX74/BXe6ppE90SkpHvD+QahtOmzdj4t/+A+/8oa7fu1COIwcOAS8ygqsBpLQVzcwuKrbciqeYn1BrUY2ojKT87Xzjai20vEYedQScze2aWoavrFefSQFkHsyqGSmCCI4iGJCcLmkMQEYXNIYoKwOSQxQdgcXYmDc3NUqFCxSaFITBA2hyQmCJtDEhOEzSGJCcLm/A8vUjfbW4FeKwAAAABJRU5ErkJggg==;direction=south;" parent="WIyWlLk6GJQsqaUBKTNV-1" vertex="1">
          <mxGeometry x="510" y="270" width="40.99" height="190" as="geometry" />
        </mxCell>
        <mxCell id="WeWkUzsG9HBNJlI6EVqi-95" value="" style="shape=image;verticalLabelPosition=bottom;labelBackgroundColor=#ffffff;verticalAlign=top;aspect=fixed;imageAspect=0;image=data:image/png,iVBORw0KGgoAAAANSUhEUgAAAOkAAAAuCAYAAADN2j7vAAAJpUlEQVR4nO2d+3MT1xXH+Z/8U22TmMckpBUtSdP8VruZzDhDYVQy05m01bQNw9SeSQiZ2TZMZEsBDMZlCgmCSYbEUbB5BDCsARdLloTX8iNgWQLJz5W82v32B3HVq9XuWquHWdrzmbmDtau99+ju/e455+7dZQsIgnA0W563AQRBWLMlPj0NKlSoOLeQJyUIh0MiJQiHQyIlCIdDIiUIh0MiJQiHQyIlCIdDIiUIh0MiJQiHQyIlCIdTlUg1AHlVw3peQy5f+DevadC0OltHEIR9kWoAZEVFJCljeGoJ38YyuBZfxtTTLHL5zVGpJElwuVxoamoqKS6XC5IkAQDS6TQ6OjrKvtPU1ASPxwNZlgEAgUCgZJ8gCAAAWZbh8XgMj29qakIgELBttyAI6OjoQDqdLm4zs5O3URTF4nHMrmra3yx4e6tFf174IopiHa11PrZEqgF4vLSOM2NPcOCraew5FcWu4xN483QM71+awcVwGk/WlFLv2gCjJUlCe3t7UZAMQRCKg5sNfqsTGggEygaTIAhFoTLqIYx0Og2PxwOPx1Nik5GdrD1mx4sgUr7f6iVS/kL1/0zFItU0YCWn4sRoErv7Imj1hvCTz8aLpcU7jrcGYvCOJHApmsHgw0WEF2SsratQ66xUM5Hy2ysRqZEgJUmC2+0uGWD1EEYgEIAgCGWDz8xOfqC/aCKtByTS/1KxSNdVDbfnVtD5pYRW7ziaOYGysrUnhNeOT+D1/ih+2R/Dr/81ia6hHzGTyUFR65ez1kukRp7UiEqEIYqi6aBix4uiWGZ7rSJl0QMLmVnIb9RHvJD4lIFPE6z26VMAZhMfmgqCUOZJ+f18H5nZzo6xEqkoinC73XC73XC5XLh69SrcbnfRPtafgiCYpjJsXz0vLo2gIpGyPPTM2BO8emyiTJxmpdk7jm2+MPZfiCMt55F7FgKrGmoKg+2Eu1Y5jX7QbSSyar2X3jszjwrUHu4KglAyuFkfsPDaqB19m/zFSr+Pb5tFA0Z9YhbuGtnOvmdmuyzLpjkp2y+KYsm5ZBcW/hzxQme/KxAIFO14UTz1hiLVtIIXTa4qOHozgbbeUMUiZWFwmy+Mo7cSmFvMIbmqYCWnQqkhBjabOOKv3pV4UrM6652TBgKBkmN5r1vrxJE+zOQHJv+3JEno7u4uDnCzvqo0n+QHvd4Ovg69fVb7zGw3Qm+n/sJtdM5YnfoLmF00TcWd2cvoHz2Cw0NudAU7cXjIjf7Rj3F79nuoWr6qes2wFKmiakitKrgsLeJvl3/EWwMxbO2xJ9Lmz8bR4g1huy+M3X0RvH1Owqc35/EgsVZ1vmoWMvKdblekfN0ul8vQs1VzUjfy6JXYWa1I0+k03G43JEkquVBY5cVW4mDei4Wm7e3tliKdn58v67fNEqlRv9ZDpJOpBzj6w5/QFew0LZ9e/yMepv5tu24zLEWaWlXQM5LAruMTaDHJQ+2Itdlb8Kxbe0L47YUp3Jxdgayoto02Cnf14tpo8PMDWL/dLPys5qSa5apsgDZSpGz/wMAAuru7i7+1Gk+qb7fScPd/yZNGk/csxakvEwujtuo3w1Kk50NP8dMTEbR4qxenWdnmC+OD4Bzi6axto81yUqvcygij+5ZGk0m1iJTPP3nYIIvH4w0VKfN+/Hfs5KSsr8PhcFmezN8vrjYnbZRI9fUZ5aR2zufa+jI+ufLehsIcjJ5BZOEujgwfwMfDv8NKbqniNsywFOk7X0jY2hOqyYOaedTWnhDe6I/iWtz+jzATKTsRHo8H8/PzpmGm2cyj2eRRtbO7Znbytg4MDDRUpGYXq0pnd/nJGT7cZe3qRevxeHDjxg3TPtZ7eSuRWi0kqUSkrA2z2V07Ir0iXdhQoGfHjgIAssoa/LcOoSvYiaHJ8xW3YYalSHf4w3Xzos3Pwtw2Xxg7Pw/jlWMT+FlfBMHJxZp/BEE0Gt+tg5YC9d86BFlZBQCcGj1c3N5z8681t20p0t0nI2jx2psoKp80KnjNl3tDeL0/iuGpJcxkcpjN5DC7mMNKzn5OShCbTXfw3aLwjgwfwJHhAyWf55dnAACD0TNlAq4VS5Ee+n4Obb4Qmqv0pq3eEHZ+HsYvTkbxq4EY9l+MYymbR1rOY355HU/XFKxv0npfgqiFLk6kieVZZOQUzo4dRVewE9PpCABg7NEPhl62VixFGl5Yw9vnJLT5wmXLACvxom/0R3HqXgrTmRwWs3ksZfNYzOYxGMtgz6ko/jmW2rRF+QRRC703Dxa95sjMd8XtGTkFAEgszxoK1HvjLzW3bSnSXF7DrdkV/P7rGew5FbU1idTiHUfP7QWk5TxkRcV4Yg3fxjIIhNL48Moj7Do+gb67yapuwRDEZjM8GSjLQRPLswAKQuXDX74MPfyy5rYtRappQFbRID3N4utIBidGk/DdWYDv9sbFf2cBsZSMXF7D9ell7LsQx2vHI9jmC+Ol3kIYfGI0iW9iGfjuFL5/PvS05h9EEI1gdX3JUIiD0TPFmVx9OTzkxnIuU3PbDXkzg4aCwFUNyCoq3vtqGq06L7zdXxDpnwdn0doTwku9IbzzRfmtCjP4qXWz5zwlSYLf7y9+5tfqGt3MN7odQRCMyMKorcUM4UR9nnttiEhzeQ2n76fgvhjHu+ensMMfLpt82u4Po280iUhSxt1Hq7j3eBUTSfuLnUVRNHyKgYmYFy2/sIAdxz+hYlUfQQDAw9QY/nH9D5bi/Pu19xFN3q9bmw0Rqayo+OT6Y7x6bAJtvlCZF+VFupQt5KyyoiJbRX6qX7wOoORGO79yhi0wZ5/9fj9kWS5ZMsc/6UEQRuRVBSMzQZwUP8KHl/ejK9iJDy/vw0nxI4zMfAdFXa9rew0RqaoVFudn8xqWc3n85uwkWr3G4e4HwTls94Wxwx/G3vNTttvihchjJD79Qm/9aplqX4tCEI2k4W8LVFQN5x48wZunY9jhD+Pl3hC29oSw85lIvSMJ7A1MYd+FOLqHH9mqWy9EHr3n1IuZiZZfzqcPfQnCCTRcpJpWCH+/iWZw+OpjHAzOYW9gCq8cm0DfaBKr6+qzB8ELxQ56IfLoc0u/31/yhAQTt168Zp6ZIJ4Xm/LeXRb+yoqKpWwel6IZ/PxkBKfv17aYwWqSRx/e6p+nZMfx243eb0QQz5tNfzl2XtUwt5hDcHIRD5/INb2hwWjSiKH3iPxtFv5JDP62DN1+IZzIpotU0wpCZYVeqE0Q1tB/M0EQDodEShAOh0RKEA6HREoQDodEShAOh0RKEA5nS3x6GlSoUHFuIU9KEA7nPySavhPSI3L+AAAAAElFTkSuQmCC;direction=south;" parent="WIyWlLk6GJQsqaUBKTNV-1" vertex="1">
          <mxGeometry x="550" y="270" width="37.51" height="190" as="geometry" />
        </mxCell>
        <mxCell id="mXnRrFpc8J4dxXeiY_ru-36" style="edgeStyle=orthogonalEdgeStyle;rounded=0;orthogonalLoop=1;jettySize=auto;html=1;entryX=0.75;entryY=1;entryDx=0;entryDy=0;fontSize=10;" edge="1" parent="WIyWlLk6GJQsqaUBKTNV-1" source="WeWkUzsG9HBNJlI6EVqi-96" target="WeWkUzsG9HBNJlI6EVqi-98">
          <mxGeometry relative="1" as="geometry" />
        </mxCell>
        <mxCell id="WeWkUzsG9HBNJlI6EVqi-96" value="" style="shape=image;verticalLabelPosition=bottom;labelBackgroundColor=#ffffff;verticalAlign=top;aspect=fixed;imageAspect=0;image=data:image/png,iVBORw0KGgoAAAANSUhEUgAAAEQAAABfCAYAAABRAmHqAAAHJ0lEQVR4nO2c23PbVB7H9W9RUjaUAtvxtrtLgCndhwWG3enAzk6H6bTkAWbgiWF4KOxCLk2TbFqXpNdN2iZpM22hhWYYIE1bx7fYzq2JE0uyJFvWzZK+PJiE+MSxJdmu7FTfme9DHB+dcz46v3NOfjoKBU9FotxuQKPJA0LIA0LIA0LIA0LIA0LIA0LIA0KoCAjH8whHIk3tXE6qDZBHgRkMX7laZLc758TXJyYQTySqA6JpGq6NjW8B0ozKZDL49rs7jstTAEAzzBYYzQoEQFVt94AQ8oAQ8oAQ8oAQ8oAQ8oAQ8oAQ8oAQ8oAQ8oAQ8oAQqjkQ0wQkzcACpyKYkhCmZTwWVCh5A6bpuJ221DBA5LyBUEpG7y80jo4t4O2LCbxzKYEPri9hYIpGIq1AzhuOG2tVDQHENIEILePY+CL2nArhmc6ZDe/qmsGeUyF8OLGEnx+LiLMK4qyCZUGFqOrQjdoOHdeBmCYgawY+mljC8z3FMDa7pSuIP5+Oos0/i9e/mcX7owu4GuLA5PKoJRPXgWiGiZk1CX+/EMeurtIw1v1sVwFMS1cQz50M4uW+ML74IYk1UXPcCVKuAjFMIKPouDHL49Wzs2VhlPKurhm84o/i5E8pRBkZi7yKjKJXNWJcA8Lk8rg7n8F/Jlfx3sgc9vZuHy7l/NzJIA6cjuDw8ByOji7gv5OrmFzMIqvojlYmV4Bwso7BhyzeGIyhpUKY2PUfTgbx5oU4vk1koOgm7DJxBch4lMcbQ7Gagtjs3d1BHByMYYFXkbcZP64AOXJtYcvyWmu/3BfG0EMWvKzbBrKUTDkydaLvPIZGrtsG8trZWbR0BesKZG9vCF9NroKV8raBnOg778jUib7z6PZfsg3kn5fn0Fpmz+FktWntCeLVs7M4NBTDoaEY3rqYwIUAC0GxP0KqAnLm8qhtIP1TNP56Jlpx31EJwou9YfgGInjFH8W/r85jPMrjdkLA7YSAHxayWORVqLr9OWTy/owjO55DlgUNn9xaxt7eEFq6g9hlE0ZL1wz29Yfx6XfLOPuAwXCIw/2VHKaTOXz94xo6flxDmJahO1h3XZlUddPEsqCi/xcab16I44VTITxrY7Ts6w/j8kwaq1kNgTUJI6E0zj1i8fndFew/HcHBwRhuxgVoDnZorm3MNMMEJ+uIswoCqxIeJAt32IqDaxJ4WceduQz+NTKHv5yJYv9ABC/2hrC7O4g2fxRXwhxuzPI4Nr6Id0fm8MW9ZGMDcSJRM5DMaoinFcTTCo5cm8cLJZbvNn8U/w+m4X/AYP9ABLu7g3j7YtxSHU0FZElQ8cmtZRwensPh4Tm81BcuGVLrI2QixuP4+CLeG5nHl/dWLdXRVECCKQn/uJxAa08IrT3bzztt/iiuz/LIqgayqg5B0SGq1pJLTQVkNauhf4rGZ3dW8NmdFfxpIFJyhWrzRzEcSuN8gMXBwRj29YdxdGzBUh1NBUTVTQiKDjqXB53L4+Obj/HHEmHz1MwhpEIpGZ/fTeKti3EcOhfD/tMRtPYUVplrEQ4PkjkMPWTxvyka41He0jWbGohhAikxj1BKxv2VHM49YvG3czG8cymBu/MZ23/pAk0OZLMME3gsqLgVF3AzLmBJUB1lznYMEKAARTNMaIbpOI24o4DUQh4QQh4QQh4QQh4QQh4QQh4QQh4QQh4QQlUDyeWkHQNEUVWM35hwXH7jBaKp+9NbgNAM03S+ees2gqFQ9UCyoohYPI7v7002tZPJVWia87Mm3kuIhDwghDwghDwghDwghCwBMU0ThmFA1/WGs2EYMGt4RHpbIIqiQBAEsCyLVCrV8GZZFplMBoqi1BaIJElgGMb1DlYLR5bl6oDoug6O41zvTC3N8zwMw97Z+o1X3Zt9VJQbLfm89TNqlK7rOxbGuhmGga5bO6dG7bQw2c4cx1kD4nZDn6QlqfL/FnEAJICOAxQoqoyPj24pN3qcgq8zUPLz38u2Y5Ssb6y96NrtY86BMAzzBEbIWHvpjpToNAkk0OkrKjt6nAJ1oAOB9e9Md8C3GcJYOyjKh45p5+2ttBzXGcgo2ikKFOWD7wAJpPC74jte/Fmg01cMaB1aiRFo1Txf/khFXYEEOn2/Nb4QZkVApjvgK3G3N4dWPYDQNO1+yJQEsk25og6TIUP+7NDlluDGBrIJAvVb6FUzf6y7XIqxoYGQk+7GnFRFyDQukIpzSKlJ12p95V1uK+8ekIqrTP2AlMufuAik8j6kHiGTTqe3heE6kA0IZXaqBSi/f6fUNexYFMU6A2kyV0oFPFVAMplMWRhPFRCapi3lRChJklxv7JOw1RwrBQCiKLre4Ho6l8tZgrEBBChk291ueD1sJSlUEghQSDbvlJQix3G2ksslgaxLURTwPO96p5yY5/mqHlaVfZRpmiZUVYUkSRBFsWEtSRJUVa3JI03vYTehXwFG07ZnPeo2wQAAAABJRU5ErkJggg==;fontSize=12;" parent="WIyWlLk6GJQsqaUBKTNV-1" vertex="1">
          <mxGeometry x="350" y="410" width="50.11" height="70" as="geometry" />
        </mxCell>
        <mxCell id="WeWkUzsG9HBNJlI6EVqi-98" value="&lt;div&gt;Update Status =&lt;/div&gt;&lt;div&gt;&lt;br&gt;&lt;/div&gt;  &lt;b&gt;URA_INV_RCVD&lt;/b&gt;" style="rounded=1;whiteSpace=wrap;html=1;fontSize=12;align=left;" parent="WIyWlLk6GJQsqaUBKTNV-1" vertex="1">
          <mxGeometry x="420" y="360" width="100" height="50" as="geometry" />
        </mxCell>
        <mxCell id="WeWkUzsG9HBNJlI6EVqi-102" value="" style="points=[[0.145,0.145,0],[0.5,0,0],[0.855,0.145,0],[1,0.5,0],[0.855,0.855,0],[0.5,1,0],[0.145,0.855,0],[0,0.5,0]];shape=mxgraph.bpmn.event;html=1;verticalLabelPosition=bottom;labelBackgroundColor=#ffffff;verticalAlign=top;align=center;perimeter=ellipsePerimeter;outlineConnect=0;aspect=fixed;outline=eventInt;symbol=error;fontSize=12;" parent="WIyWlLk6GJQsqaUBKTNV-1" vertex="1">
          <mxGeometry x="540" y="270" width="47" height="47" as="geometry" />
        </mxCell>
        <mxCell id="WeWkUzsG9HBNJlI6EVqi-103" value="" style="aspect=fixed;html=1;points=[];align=center;image;fontSize=12;image=img/lib/azure2/general/Globe_Error.svg;" parent="WIyWlLk6GJQsqaUBKTNV-1" vertex="1">
          <mxGeometry x="460" y="160" width="30.55" height="36" as="geometry" />
        </mxCell>
        <mxCell id="WeWkUzsG9HBNJlI6EVqi-178" value="INT101_ReceivablesInvoices_ERP_URA" style="text;html=1;strokeColor=none;fillColor=none;align=center;verticalAlign=middle;whiteSpace=wrap;rounded=0;fontSize=12;fontStyle=1" parent="WIyWlLk6GJQsqaUBKTNV-1" vertex="1">
          <mxGeometry x="100" y="-260" width="40" height="20" as="geometry" />
        </mxCell>
        <mxCell id="Na5_Am36wEEzq9ezzZd5-0" value="" style="rounded=1;whiteSpace=wrap;html=1;" parent="WIyWlLk6GJQsqaUBKTNV-1" vertex="1">
          <mxGeometry x="590" y="1180" width="350" height="386" as="geometry" />
        </mxCell>
        <mxCell id="Na5_Am36wEEzq9ezzZd5-1" value="" style="shape=image;verticalLabelPosition=bottom;labelBackgroundColor=#ffffff;verticalAlign=top;aspect=fixed;imageAspect=0;image=data:image/png,iVBORw0KGgoAAAANSUhEUgAAADQAAABHCAYAAABIzmSEAAAI/0lEQVRoge2afVRT9xnHbz316Dzt2p7O1bb2aLd1L+26dmezO9vRY905a+nWelra2aOzvtRudpvGWa3utVVkUlerAsqLoIKIVLm8qAUCMSQQAkRegnkhCQghiCSQQBKSEBISvvsDcpMLebkJwTEPzznPH89z7+95ns/v+d1ffvcCgXtMiP91AdGWOaDZLnNAs13mgGa7RBXIplPAIC+BVpSNO8J09IrOQS+9CssdSTTTBJVpATksfbhdnYyWtNfA//gBcFkEBH9fjPrDz+HG5z+BKOF5CP75OLgsApW756M5eQ001/8D+4A6SuVPlYiArL1StF58H1wWgfqE53Dr2t8woKyA0zbo937XiAXGW1VQs+PQcHQFuCwC0nPrYOoUTqt4fxI2UHvxXnBZBCSZb2FQdT2ipOauesgvbAKXRUCR9wFGA0xEJMIYyKyug+izH0F05EUYWssC3ud0OWCwadE7pIZ2SAOjXR/wXpO6Ds3Ja1DzyVIY5CXhVR5AGAH1iS+Du2seVPk7/F6/ZZDgqigO+dztuFryDirJl1GT9xIEX/4M1wtfQWHZepD8neDeTIbO0j1lfGfpJ+CyCPQIUqZHAwZAuqY8cFkENNzPp1wTd5WCrPwQtRd+jL7j82H8ggiqXckPglP4KgoEe9E1qKTF6hVlgcsi0M1PnDmgwbbK8SS84zS/waZFQfVHEGX9ICREIOUUxaC0IYEWV9eYCy6LgK7pYvSBRoeNEB58Gu1X9tH8Kr0YBeXvMepIKFWkLgbJZ8E84t0UunnHwNuzEFZda3SBWnO3ojl5Dc2n6GvA1ZJ3pg3iq72JC0BWfoghHyhZ9gaIU16NHtCAsgJcFoGh7kbK12tWo7BsQ1RhvFALQfJ3Ubkc5l7wP34AvaJz0QESn/rVlB0tn7djRmA82pq6GGWNn1H5ujgJqD/87PSBTOo6cFkEhvvbKV+1LBOS9MdnFMj4BYHy4l+j29gGAHA77aja93X0iS9PD0hF7oQk403KdrocKCjfFFZh5tNPwSHJgF10OKxxA8fmobBmX8BaIgISHlgG7Y3zlF3fdgmytMcYF2VKWgTrlbcwZjfAPajCUNazYXdJb70DADC288DddR/czuHIgKy6VnBZBBxmLeUjq3aF153Mp+FQ5gEAxpxWjDQeDWt8x8mHwJemU/n5+x7EgIIdGZC24QJq475D2Q6XHVdKfsu8O4lfg7X4DbhNnXDpJXAZ5HCbOmA++10Yj93HOA5Z9ReqhuaTv0RXxeHIgDpLP0VL+m8oW2NUoi7nhfC6I82E29wFW8l6DFeyANcI7HVxMB6/n3GcgvL3qBqUl/+E1twtkQEpL22HIu8Dym7RsCFP+ybD7iyEtXgt3EMauPqaJzaHpcCYe7xLGctgPDaPUSz2lddhdZgBAOryQ2hJjYkMSJ6zEW0F3nbXqS6i49TDzLpz5ttwSM8CgBco/YnxQGNuDPP3wJS4kFEsXv7LOCncj4OczchIX4Gig4/hIGczpZduJgVUGlDrhc1QkTu9QMpcdJx8KHQRx+8f746lxz8QxuAeVMKc9gSjZ4l3eTUFlJn2UxQeXEIDCqY0oLaCXZCf30jZzeprUKQuDt2djOUYEZ+kxrn6xTCeWABzxnLacrBV/B6mpEUh41UUxVAH1o6v/gFJJvPfIhqQpvIomhJXUXaHQYobWd8LWYC1eC3cZjU1bmxYj5GWFDgU9NcAV58Y5rQlIeMVlq2nxsjPb4SKZEUGZGgtRdX+Ryjb4jCh9Ora4N05vRQjTccA9yg1zm1Ww3ptHYa5k95wXQ7YSjeG7FI+78/UENGRF9AjTIsMyGkbGD9l326ifPm8PwbvTtHrcBlktKBuUwcsBTGwlW7EZBntroQ5fWnAeD1Ji1DedHS8HoseXBYBS484MiAAaEpcBTX7EGXzJKm4FWSns3G2Y8wxRIsx5rTCpRXB1T+1kLFhA8xnnwkYj39pJXVA7RVlQXhgGWMYv0Dd/BOoT/ghZZvshqAvdTb2FtjKt8FW8QdmWr4V5rOBn0uS791lW1Jj0F60Z3pAo7ZBVO6ej35JMeUraTjMbPueptbkvYRWbR0AYKi7YXy5hfkZ2e8LXnvRHjSeWEnZ9lEbSM7WGYW5nbQIhcK/Ujml596FLOvdsGACAjmtBlTtfxg9glOUT6GrR0VRzIwBkZxtsIyYAAD9kqKJ7tyMDhAA9AjTwPtoAaxa7w4mVJxH1aWVUYcpLPsdNEYVNZnCA8vRWfpp2DBBgQBAfmETGo6uoL1g1SpyUF78WlRA+k7MB1mxBepB7yerm6ffgDjllYhgQgIBQFPSarSkxmDM54dTqbsBkvM+bp16JGKYxjPfAlm9GwM2HW0C6/79fTiGtP5KiQ6Q0zaAxuO/QFPSaowYeyi/w2VHWeMRFJeugyrlUcYgzRlPgeRsg6jN+/HD7bRDeuZt1B16BjadImIYRkDjCW2QZLyJmn89iX5JEe2aZcSEavkZkPwduPbV26jNeRHS9CVQpTwKZeo30HL6SVR/+XMUlm1AgWAvWjTltPHGdj5ECc+jKXEV7IOaacEwBvKIqbMWPTVpMLbzMDpsmnLd5R6FxWHCgPUO9OYu6Ie6YLT1wea0TLnX7bDB1CnEHWE6TJ21kRNMkrk/Gs92mQOa7TIHNNtlDmi2y70LJM0mkLPZo/GQAgBqwY7Lhd+joiweJCfUIVILQZwn1oSHE+uTh0BOoPj+onFiwZaNx9UG+H8OgkqS7XP8kMVP2DMDxJYFHBA82sTYYDEIf0m94gHSQhA3aUZl8SDjYukdlcVP6jJDIH0uSGpcLAR60CaMDlILtu99U4F8u+BT+OZ4SCeuyTmxtOAkR+vTRW9yrd7bMWl2LAT60EuOLQOg11KrgAIOCBRRhzy+caDabJ/Z0OeCzK6lLzmPD57Z88wg0yXnO5HEdIH8PEP6XJBhd+imT/FaCOKYA0l9JkyaPRXI42MMREEF3OWYPUPeGLFgZ8eCLWPYIZ9nj53tAfF2m4ybBCKLD/YM3VsyBzTbZQ5otssc0GwXxkBus+au6V0BGtVwYBfF3xW9K0D/L3LPAf0XB77R5xnIoB4AAAAASUVORK5CYII=;" parent="WIyWlLk6GJQsqaUBKTNV-1" vertex="1">
          <mxGeometry x="730.0000000000001" y="1180" width="52" height="71" as="geometry" />
        </mxCell>
        <mxCell id="Na5_Am36wEEzq9ezzZd5-2" value="&lt;font style=&quot;font-size: 20px&quot;&gt;Database Insert for failed Instance with details&amp;nbsp; &lt;/font&gt;" style="rounded=1;whiteSpace=wrap;html=1;" parent="WIyWlLk6GJQsqaUBKTNV-1" vertex="1">
          <mxGeometry x="679" y="1340" width="180" height="90" as="geometry" />
        </mxCell>
        <mxCell id="Na5_Am36wEEzq9ezzZd5-3" value="STOP /Error " style="ellipse;whiteSpace=wrap;html=1;" parent="WIyWlLk6GJQsqaUBKTNV-1" vertex="1">
          <mxGeometry x="705" y="1449.5" width="120" height="80" as="geometry" />
        </mxCell>
        <mxCell id="Na5_Am36wEEzq9ezzZd5-4" value="Based on Various Catch blocks " style="rhombus;whiteSpace=wrap;html=1;" parent="WIyWlLk6GJQsqaUBKTNV-1" vertex="1">
          <mxGeometry x="670" y="1260" width="170" height="70" as="geometry" />
        </mxCell>
        <mxCell id="Na5_Am36wEEzq9ezzZd5-5" value="" style="endArrow=classic;html=1;" parent="WIyWlLk6GJQsqaUBKTNV-1" edge="1">
          <mxGeometry width="50" height="50" relative="1" as="geometry">
            <mxPoint x="750" y="1220" as="sourcePoint" />
            <mxPoint x="750" y="1260" as="targetPoint" />
          </mxGeometry>
        </mxCell>
        <mxCell id="e01KKH6Mvmh2qi1BjheT-133" value="&lt;div&gt;URA_Invoice number&lt;/div&gt;&lt;div&gt;Antifakecode&lt;/div&gt;&lt;div&gt;QRCode&lt;/div&gt;" style="text;html=1;strokeColor=none;fillColor=none;align=center;verticalAlign=middle;whiteSpace=wrap;rounded=0;fontSize=11;" parent="WIyWlLk6GJQsqaUBKTNV-1" vertex="1">
          <mxGeometry x="90" y="-190" width="170" height="50" as="geometry" />
        </mxCell>
        <mxCell id="e01KKH6Mvmh2qi1BjheT-538" value="GLOBAL FAULT HANDLER" style="text;html=1;strokeColor=none;fillColor=none;align=center;verticalAlign=middle;whiteSpace=wrap;rounded=0;fontStyle=1" parent="WIyWlLk6GJQsqaUBKTNV-1" vertex="1">
          <mxGeometry x="350" y="-400" width="120" height="16" as="geometry" />
        </mxCell>
        <mxCell id="e01KKH6Mvmh2qi1BjheT-540" value="" style="rounded=1;whiteSpace=wrap;html=1;fontSize=12;align=left;" parent="WIyWlLk6GJQsqaUBKTNV-1" vertex="1">
          <mxGeometry x="-210" y="690" width="580" height="170" as="geometry" />
        </mxCell>
        <mxCell id="e01KKH6Mvmh2qi1BjheT-582" value="" style="edgeStyle=orthogonalEdgeStyle;rounded=0;orthogonalLoop=1;jettySize=auto;html=1;fontSize=13;" parent="WIyWlLk6GJQsqaUBKTNV-1" source="e01KKH6Mvmh2qi1BjheT-541" target="e01KKH6Mvmh2qi1BjheT-542" edge="1">
          <mxGeometry relative="1" as="geometry" />
        </mxCell>
        <mxCell id="e01KKH6Mvmh2qi1BjheT-541" value="" style="points=[[0.5,0,0],[1,0.5,0],[0.5,1,0],[0,0.5,0],[0.145,0.145,0],[0.8555,0.145,0],[0.855,0.8555,0],[0.145,0.855,0]];verticalLabelPosition=bottom;html=1;verticalAlign=top;aspect=fixed;align=center;pointerEvents=1;shape=mxgraph.cisco19.rect;prIcon=clock;fillColor=#FAFAFA;strokeColor=#005073;" parent="WIyWlLk6GJQsqaUBKTNV-1" vertex="1">
          <mxGeometry x="-190" y="760" width="50" height="50" as="geometry" />
        </mxCell>
        <mxCell id="e01KKH6Mvmh2qi1BjheT-583" value="" style="edgeStyle=orthogonalEdgeStyle;rounded=0;orthogonalLoop=1;jettySize=auto;html=1;fontSize=13;startArrow=none;" parent="WIyWlLk6GJQsqaUBKTNV-1" source="e01KKH6Mvmh2qi1BjheT-590" target="e01KKH6Mvmh2qi1BjheT-544" edge="1">
          <mxGeometry relative="1" as="geometry" />
        </mxCell>
        <mxCell id="e01KKH6Mvmh2qi1BjheT-542" value="&lt;div&gt;&lt;b&gt;Call Fusion API &lt;br&gt;&lt;/b&gt;&lt;/div&gt;&lt;div&gt;&lt;b&gt;where status = &quot;URA_INV_RCVD&quot;&lt;/b&gt;&lt;br&gt;&lt;b&gt;&lt;/b&gt;&lt;/div&gt;" style="rounded=1;whiteSpace=wrap;html=1;fontSize=12;align=left;" parent="WIyWlLk6GJQsqaUBKTNV-1" vertex="1">
          <mxGeometry x="-110" y="750" width="120" height="60" as="geometry" />
        </mxCell>
        <mxCell id="e01KKH6Mvmh2qi1BjheT-543" value="Fusion_CALL" style="text;html=1;strokeColor=none;fillColor=none;align=center;verticalAlign=middle;whiteSpace=wrap;rounded=0;fontSize=12;fontStyle=1" parent="WIyWlLk6GJQsqaUBKTNV-1" vertex="1">
          <mxGeometry x="-20" y="670" width="100" height="30" as="geometry" />
        </mxCell>
        <mxCell id="e01KKH6Mvmh2qi1BjheT-544" value="&lt;div&gt;&lt;b&gt;Update Status=&lt;/b&gt;&lt;/div&gt;&lt;div&gt;&lt;b&gt;FUS_INV_COMPLETE&lt;/b&gt;&lt;/div&gt;" style="rounded=1;whiteSpace=wrap;html=1;fontSize=12;align=left;" parent="WIyWlLk6GJQsqaUBKTNV-1" vertex="1">
          <mxGeometry x="200" y="760" width="120" height="90" as="geometry" />
        </mxCell>
        <mxCell id="e01KKH6Mvmh2qi1BjheT-545" value="" style="points=[[0.145,0.145,0],[0.5,0,0],[0.855,0.145,0],[1,0.5,0],[0.855,0.855,0],[0.5,1,0],[0.145,0.855,0],[0,0.5,0]];shape=mxgraph.bpmn.event;html=1;verticalLabelPosition=bottom;labelBackgroundColor=#ffffff;verticalAlign=top;align=center;perimeter=ellipsePerimeter;outlineConnect=0;aspect=fixed;outline=eventInt;symbol=error;fontSize=12;" parent="WIyWlLk6GJQsqaUBKTNV-1" vertex="1">
          <mxGeometry x="350" y="720" width="47" height="47" as="geometry" />
        </mxCell>
        <mxCell id="e01KKH6Mvmh2qi1BjheT-590" value="Sucess" style="rhombus;whiteSpace=wrap;html=1;fontSize=13;" parent="WIyWlLk6GJQsqaUBKTNV-1" vertex="1">
          <mxGeometry x="50" y="740" width="80" height="80" as="geometry" />
        </mxCell>
        <mxCell id="e01KKH6Mvmh2qi1BjheT-591" value="" style="edgeStyle=orthogonalEdgeStyle;rounded=0;orthogonalLoop=1;jettySize=auto;html=1;fontSize=13;endArrow=none;" parent="WIyWlLk6GJQsqaUBKTNV-1" source="e01KKH6Mvmh2qi1BjheT-542" target="e01KKH6Mvmh2qi1BjheT-590" edge="1">
          <mxGeometry relative="1" as="geometry">
            <mxPoint x="89.99999999999955" y="780" as="sourcePoint" />
            <mxPoint x="199.99999999999955" y="780" as="targetPoint" />
          </mxGeometry>
        </mxCell>
        <mxCell id="e01KKH6Mvmh2qi1BjheT-592" value="Nochange In Status IN Case Of Updates" style="text;html=1;strokeColor=none;fillColor=none;align=center;verticalAlign=middle;whiteSpace=wrap;rounded=0;fontSize=13;fontStyle=1" parent="WIyWlLk6GJQsqaUBKTNV-1" vertex="1">
          <mxGeometry x="390" y="740" width="160" height="70" as="geometry" />
        </mxCell>
        <mxCell id="mXnRrFpc8J4dxXeiY_ru-5" value="&lt;font style=&quot;font-size: 10px&quot;&gt;&lt;b&gt;IF URA_INVOICE = VALUE&lt;/b&gt;&lt;/font&gt;" style="text;html=1;strokeColor=none;fillColor=none;align=center;verticalAlign=middle;whiteSpace=wrap;rounded=0;" vertex="1" parent="WIyWlLk6GJQsqaUBKTNV-1">
          <mxGeometry x="90" y="370" width="70" height="30" as="geometry" />
        </mxCell>
        <mxCell id="mXnRrFpc8J4dxXeiY_ru-9" value="&lt;div&gt;Update Status =&lt;/div&gt;&lt;div&gt;&lt;br&gt;&lt;/div&gt;  &lt;b&gt;FUS_INV_RCVD&lt;/b&gt;" style="rounded=1;whiteSpace=wrap;html=1;fontSize=12;align=left;" vertex="1" parent="WIyWlLk6GJQsqaUBKTNV-1">
          <mxGeometry x="350" y="260" width="100" height="50" as="geometry" />
        </mxCell>
        <mxCell id="mXnRrFpc8J4dxXeiY_ru-13" value="" style="shape=image;verticalLabelPosition=bottom;labelBackgroundColor=#ffffff;verticalAlign=top;aspect=fixed;imageAspect=0;image=data:image/png,iVBORw0KGgoAAAANSUhEUgAAACYAAAAnCAYAAABjYToLAAAEoUlEQVRYhe3Y6W8bRRjH8f5tIMT5BlEkDiEB5Q0VEm1aURBVQ1tEC5UQx4sKEC5NldI0pFWgSUtzOHFOJ3EdN2nrHLZ3vV67OXzE1653d+bLC8d2UMhlJWqFMtJPlizL/nifmWdn5wBP6TjwpAEbjacflkqliMfjxONxdF0nFouhaRrRaBRVVVFVFUVRiEQiu550Ov3fMK/Xi8vlwuVyce/ePXw+Hz6fj4mJCcbHxxkbG8Pr9eL1ehkdHWVkZITh4WGGhoYYHBxkcHCQgYEBPB4P/f399PX14Xa7cbvd9Pb2bpmWlhYmJibWwyool8tFIpHY2xptMFwu1z5sH7YPqxsmJQgpcYTEFuVXIUE+SZgtJAVLoKRNxrQ8Q2qOQKLAYt7GsEXduLphEhAS8iVBIFHkoneBT+5EOX5b5WSXxtXAMkraJFW0yZUcDFvgCIncprRumJDlqzW7bHDijsaJO1FuBdN4IlmaJ5d5ry1EY3eMbwcTXLufZG7ZwLQFYpuyumASsBxJruRw/X6SQzfCTD8uUrQEJUeSNhw6ZzKcdeuc649z5JbKmd4YoaTJiuFg2gJbyE3LXBfMEZKiJVjIWVzwxDnfr5MviRpcgulIMoZDsmgzEctzpEPli54YY1qepYJN0SrjdhWWNhyCi0XO9em8+0eIn8YWMe3aj0gqK7VcbsMW3J7J8H5bmHdaQxzvjDKk5lgq2BvOubpgoZTJyS6Nhk6V1qkkjxaLm/57ISFjOAQSBXpDK5x16xztUBmJ5nA2kNUFa51Ocrg9QiBRwLTltlZb5eqZtiSaKdHYE+P74ceYzjZhPza1bQk70xvjS7de7lOrjbTklPtZruSQNf+dgiUwHVn9rCMkl3xLNHSqFCyx7vsrsO8utVZz4IfLW8NO9+h81RfHWl1ZQsJCzqKxO8axTpUjHbU0dJb72vRCsboShQTXTmGVNzeDNU8u89FfCsElA8MWWEKirZR449o8L14O8vylWl74Lcjrv8/h1XKYTrmUStqksVvbWSm3A5tPGhz+U+FUt4Y/XiBVtNGzFj+PL3JhIM55Ty3feOJc9C4QXDJYMR1mlw2+9sT5sD3CaDS3YcOtC5YxHHx6ntM9MY52qPwyvoiSNvngZpi3r8/zZkstb7XMc+hGGK+WZ0DJcmy1tP2RLMniLreLSoONpEwGlSw+PY+aLnG6J0ZDp8rHHUo1RztUTnXHmEwUiKRNBpQss8sGBat879xo1HdLkmWc6UhKjsS0y7uLg1fneM71iGd+reVZ1yNebZ5lWM2V5+PqPLO3aDG7sh8TEvSsxYWBBJ/f1fj072g1n93VONcfZ3qhiLXBRN9TmJYpcfDqHK80zfDS5WA1LzfN8FrzLCPRHNYmpdsTmJSQKtrcfJDiyuQSTf5arviXaHuQIpopbTqn9gQGlduNoGgJCmtStER1bm13k7irMCHBWbPvX5vKM8BOxv/7KWkftg/bKWztwV0ikUDX9eppoqIohMNhQqEQc3NzzMzMEAwGefjwIdPT00xNTREIBPD7/XWnvb2drq6u9TCoHXVWUJWjzXA4zPz8/J6h/H4/kUhk3RX8BxpxoetB4WTGAAAAAElFTkSuQmCC;" vertex="1" parent="WIyWlLk6GJQsqaUBKTNV-1">
          <mxGeometry x="230" y="320" width="38" height="39" as="geometry" />
        </mxCell>
        <mxCell id="mXnRrFpc8J4dxXeiY_ru-19" value="&lt;font style=&quot;font-size: 10px&quot;&gt;&lt;b&gt;IF URA_INVOICE = &quot;&quot;&lt;br&gt;&lt;/b&gt;&lt;/font&gt;" style="text;html=1;strokeColor=none;fillColor=none;align=center;verticalAlign=middle;whiteSpace=wrap;rounded=0;" vertex="1" parent="WIyWlLk6GJQsqaUBKTNV-1">
          <mxGeometry x="110" y="270" width="80" height="40" as="geometry" />
        </mxCell>
        <mxCell id="mXnRrFpc8J4dxXeiY_ru-40" style="edgeStyle=orthogonalEdgeStyle;rounded=0;orthogonalLoop=1;jettySize=auto;html=1;fontSize=10;" edge="1" parent="WIyWlLk6GJQsqaUBKTNV-1" source="mXnRrFpc8J4dxXeiY_ru-22" target="WeWkUzsG9HBNJlI6EVqi-96">
          <mxGeometry relative="1" as="geometry" />
        </mxCell>
        <mxCell id="mXnRrFpc8J4dxXeiY_ru-22" value="&lt;div style=&quot;font-size: 9px&quot;&gt;1. Insert Ura_InvoiceNO&lt;br&gt;&lt;/div&gt;&lt;div style=&quot;font-size: 9px&quot;&gt;2.Update Status = &lt;/div&gt;&lt;b style=&quot;font-size: 9px&quot;&gt;URA_INV_ONLY_RCVD&lt;/b&gt;" style="rounded=1;whiteSpace=wrap;html=1;fontSize=9;align=left;" vertex="1" parent="WIyWlLk6GJQsqaUBKTNV-1">
          <mxGeometry x="190" y="350" width="120" height="60" as="geometry" />
        </mxCell>
        <mxCell id="mXnRrFpc8J4dxXeiY_ru-23" value="&lt;div&gt;Update Status =&lt;/div&gt;  &lt;div&gt;&lt;b&gt;URA_INV_TMOUT&lt;/b&gt;&lt;/div&gt;&lt;div&gt;&lt;b&gt;URA_INV_ERROR&lt;/b&gt;&lt;/div&gt;" style="rounded=1;whiteSpace=wrap;html=1;fontSize=12;align=left;" vertex="1" parent="WIyWlLk6GJQsqaUBKTNV-1">
          <mxGeometry x="590" y="220" width="120" height="60" as="geometry" />
        </mxCell>
        <mxCell id="mXnRrFpc8J4dxXeiY_ru-24" value="" style="shape=image;verticalLabelPosition=bottom;labelBackgroundColor=#ffffff;verticalAlign=top;aspect=fixed;imageAspect=0;image=data:image/png,iVBORw0KGgoAAAANSUhEUgAAACYAAAAnCAYAAABjYToLAAAEoUlEQVRYhe3Y6W8bRRjH8f5tIMT5BlEkDiEB5Q0VEm1aURBVQ1tEC5UQx4sKEC5NldI0pFWgSUtzOHFOJ3EdN2nrHLZ3vV67OXzE1653d+bLC8d2UMhlJWqFMtJPlizL/nifmWdn5wBP6TjwpAEbjacflkqliMfjxONxdF0nFouhaRrRaBRVVVFVFUVRiEQiu550Ov3fMK/Xi8vlwuVyce/ePXw+Hz6fj4mJCcbHxxkbG8Pr9eL1ehkdHWVkZITh4WGGhoYYHBxkcHCQgYEBPB4P/f399PX14Xa7cbvd9Pb2bpmWlhYmJibWwyool8tFIpHY2xptMFwu1z5sH7YPqxsmJQgpcYTEFuVXIUE+SZgtJAVLoKRNxrQ8Q2qOQKLAYt7GsEXduLphEhAS8iVBIFHkoneBT+5EOX5b5WSXxtXAMkraJFW0yZUcDFvgCIncprRumJDlqzW7bHDijsaJO1FuBdN4IlmaJ5d5ry1EY3eMbwcTXLufZG7ZwLQFYpuyumASsBxJruRw/X6SQzfCTD8uUrQEJUeSNhw6ZzKcdeuc649z5JbKmd4YoaTJiuFg2gJbyE3LXBfMEZKiJVjIWVzwxDnfr5MviRpcgulIMoZDsmgzEctzpEPli54YY1qepYJN0SrjdhWWNhyCi0XO9em8+0eIn8YWMe3aj0gqK7VcbsMW3J7J8H5bmHdaQxzvjDKk5lgq2BvOubpgoZTJyS6Nhk6V1qkkjxaLm/57ISFjOAQSBXpDK5x16xztUBmJ5nA2kNUFa51Ocrg9QiBRwLTltlZb5eqZtiSaKdHYE+P74ceYzjZhPza1bQk70xvjS7de7lOrjbTklPtZruSQNf+dgiUwHVn9rCMkl3xLNHSqFCyx7vsrsO8utVZz4IfLW8NO9+h81RfHWl1ZQsJCzqKxO8axTpUjHbU0dJb72vRCsboShQTXTmGVNzeDNU8u89FfCsElA8MWWEKirZR449o8L14O8vylWl74Lcjrv8/h1XKYTrmUStqksVvbWSm3A5tPGhz+U+FUt4Y/XiBVtNGzFj+PL3JhIM55Ty3feOJc9C4QXDJYMR1mlw2+9sT5sD3CaDS3YcOtC5YxHHx6ntM9MY52qPwyvoiSNvngZpi3r8/zZkstb7XMc+hGGK+WZ0DJcmy1tP2RLMniLreLSoONpEwGlSw+PY+aLnG6J0ZDp8rHHUo1RztUTnXHmEwUiKRNBpQss8sGBat879xo1HdLkmWc6UhKjsS0y7uLg1fneM71iGd+reVZ1yNebZ5lWM2V5+PqPLO3aDG7sh8TEvSsxYWBBJ/f1fj072g1n93VONcfZ3qhiLXBRN9TmJYpcfDqHK80zfDS5WA1LzfN8FrzLCPRHNYmpdsTmJSQKtrcfJDiyuQSTf5arviXaHuQIpopbTqn9gQGlduNoGgJCmtStER1bm13k7irMCHBWbPvX5vKM8BOxv/7KWkftg/bKWztwV0ikUDX9eppoqIohMNhQqEQc3NzzMzMEAwGefjwIdPT00xNTREIBPD7/XWnvb2drq6u9TCoHXVWUJWjzXA4zPz8/J6h/H4/kUhk3RX8BxpxoetB4WTGAAAAAElFTkSuQmCC;" vertex="1" parent="WIyWlLk6GJQsqaUBKTNV-1">
          <mxGeometry x="380" y="360" width="38" height="39" as="geometry" />
        </mxCell>
        <mxCell id="mXnRrFpc8J4dxXeiY_ru-25" value="" style="shape=image;verticalLabelPosition=bottom;labelBackgroundColor=#ffffff;verticalAlign=top;aspect=fixed;imageAspect=0;image=data:image/png,iVBORw0KGgoAAAANSUhEUgAAACYAAAAnCAYAAABjYToLAAAEoUlEQVRYhe3Y6W8bRRjH8f5tIMT5BlEkDiEB5Q0VEm1aURBVQ1tEC5UQx4sKEC5NldI0pFWgSUtzOHFOJ3EdN2nrHLZ3vV67OXzE1653d+bLC8d2UMhlJWqFMtJPlizL/nifmWdn5wBP6TjwpAEbjacflkqliMfjxONxdF0nFouhaRrRaBRVVVFVFUVRiEQiu550Ov3fMK/Xi8vlwuVyce/ePXw+Hz6fj4mJCcbHxxkbG8Pr9eL1ehkdHWVkZITh4WGGhoYYHBxkcHCQgYEBPB4P/f399PX14Xa7cbvd9Pb2bpmWlhYmJibWwyool8tFIpHY2xptMFwu1z5sH7YPqxsmJQgpcYTEFuVXIUE+SZgtJAVLoKRNxrQ8Q2qOQKLAYt7GsEXduLphEhAS8iVBIFHkoneBT+5EOX5b5WSXxtXAMkraJFW0yZUcDFvgCIncprRumJDlqzW7bHDijsaJO1FuBdN4IlmaJ5d5ry1EY3eMbwcTXLufZG7ZwLQFYpuyumASsBxJruRw/X6SQzfCTD8uUrQEJUeSNhw6ZzKcdeuc649z5JbKmd4YoaTJiuFg2gJbyE3LXBfMEZKiJVjIWVzwxDnfr5MviRpcgulIMoZDsmgzEctzpEPli54YY1qepYJN0SrjdhWWNhyCi0XO9em8+0eIn8YWMe3aj0gqK7VcbsMW3J7J8H5bmHdaQxzvjDKk5lgq2BvOubpgoZTJyS6Nhk6V1qkkjxaLm/57ISFjOAQSBXpDK5x16xztUBmJ5nA2kNUFa51Ocrg9QiBRwLTltlZb5eqZtiSaKdHYE+P74ceYzjZhPza1bQk70xvjS7de7lOrjbTklPtZruSQNf+dgiUwHVn9rCMkl3xLNHSqFCyx7vsrsO8utVZz4IfLW8NO9+h81RfHWl1ZQsJCzqKxO8axTpUjHbU0dJb72vRCsboShQTXTmGVNzeDNU8u89FfCsElA8MWWEKirZR449o8L14O8vylWl74Lcjrv8/h1XKYTrmUStqksVvbWSm3A5tPGhz+U+FUt4Y/XiBVtNGzFj+PL3JhIM55Ty3feOJc9C4QXDJYMR1mlw2+9sT5sD3CaDS3YcOtC5YxHHx6ntM9MY52qPwyvoiSNvngZpi3r8/zZkstb7XMc+hGGK+WZ0DJcmy1tP2RLMniLreLSoONpEwGlSw+PY+aLnG6J0ZDp8rHHUo1RztUTnXHmEwUiKRNBpQss8sGBat879xo1HdLkmWc6UhKjsS0y7uLg1fneM71iGd+reVZ1yNebZ5lWM2V5+PqPLO3aDG7sh8TEvSsxYWBBJ/f1fj072g1n93VONcfZ3qhiLXBRN9TmJYpcfDqHK80zfDS5WA1LzfN8FrzLCPRHNYmpdsTmJSQKtrcfJDiyuQSTf5arviXaHuQIpopbTqn9gQGlduNoGgJCmtStER1bm13k7irMCHBWbPvX5vKM8BOxv/7KWkftg/bKWztwV0ikUDX9eppoqIohMNhQqEQc3NzzMzMEAwGefjwIdPT00xNTREIBPD7/XWnvb2drq6u9TCoHXVWUJWjzXA4zPz8/J6h/H4/kUhk3RX8BxpxoetB4WTGAAAAAElFTkSuQmCC;" vertex="1" parent="WIyWlLk6GJQsqaUBKTNV-1">
          <mxGeometry x="310" y="270" width="38.97" height="40" as="geometry" />
        </mxCell>
        <mxCell id="mXnRrFpc8J4dxXeiY_ru-26" value="" style="shape=image;verticalLabelPosition=bottom;labelBackgroundColor=#ffffff;verticalAlign=top;aspect=fixed;imageAspect=0;image=data:image/png,iVBORw0KGgoAAAANSUhEUgAAACYAAAAnCAYAAABjYToLAAAEoUlEQVRYhe3Y6W8bRRjH8f5tIMT5BlEkDiEB5Q0VEm1aURBVQ1tEC5UQx4sKEC5NldI0pFWgSUtzOHFOJ3EdN2nrHLZ3vV67OXzE1653d+bLC8d2UMhlJWqFMtJPlizL/nifmWdn5wBP6TjwpAEbjacflkqliMfjxONxdF0nFouhaRrRaBRVVVFVFUVRiEQiu550Ov3fMK/Xi8vlwuVyce/ePXw+Hz6fj4mJCcbHxxkbG8Pr9eL1ehkdHWVkZITh4WGGhoYYHBxkcHCQgYEBPB4P/f399PX14Xa7cbvd9Pb2bpmWlhYmJibWwyool8tFIpHY2xptMFwu1z5sH7YPqxsmJQgpcYTEFuVXIUE+SZgtJAVLoKRNxrQ8Q2qOQKLAYt7GsEXduLphEhAS8iVBIFHkoneBT+5EOX5b5WSXxtXAMkraJFW0yZUcDFvgCIncprRumJDlqzW7bHDijsaJO1FuBdN4IlmaJ5d5ry1EY3eMbwcTXLufZG7ZwLQFYpuyumASsBxJruRw/X6SQzfCTD8uUrQEJUeSNhw6ZzKcdeuc649z5JbKmd4YoaTJiuFg2gJbyE3LXBfMEZKiJVjIWVzwxDnfr5MviRpcgulIMoZDsmgzEctzpEPli54YY1qepYJN0SrjdhWWNhyCi0XO9em8+0eIn8YWMe3aj0gqK7VcbsMW3J7J8H5bmHdaQxzvjDKk5lgq2BvOubpgoZTJyS6Nhk6V1qkkjxaLm/57ISFjOAQSBXpDK5x16xztUBmJ5nA2kNUFa51Ocrg9QiBRwLTltlZb5eqZtiSaKdHYE+P74ceYzjZhPza1bQk70xvjS7de7lOrjbTklPtZruSQNf+dgiUwHVn9rCMkl3xLNHSqFCyx7vsrsO8utVZz4IfLW8NO9+h81RfHWl1ZQsJCzqKxO8axTpUjHbU0dJb72vRCsboShQTXTmGVNzeDNU8u89FfCsElA8MWWEKirZR449o8L14O8vylWl74Lcjrv8/h1XKYTrmUStqksVvbWSm3A5tPGhz+U+FUt4Y/XiBVtNGzFj+PL3JhIM55Ty3feOJc9C4QXDJYMR1mlw2+9sT5sD3CaDS3YcOtC5YxHHx6ntM9MY52qPwyvoiSNvngZpi3r8/zZkstb7XMc+hGGK+WZ0DJcmy1tP2RLMniLreLSoONpEwGlSw+PY+aLnG6J0ZDp8rHHUo1RztUTnXHmEwUiKRNBpQss8sGBat879xo1HdLkmWc6UhKjsS0y7uLg1fneM71iGd+reVZ1yNebZ5lWM2V5+PqPLO3aDG7sh8TEvSsxYWBBJ/f1fj072g1n93VONcfZ3qhiLXBRN9TmJYpcfDqHK80zfDS5WA1LzfN8FrzLCPRHNYmpdsTmJSQKtrcfJDiyuQSTf5arviXaHuQIpopbTqn9gQGlduNoGgJCmtStER1bm13k7irMCHBWbPvX5vKM8BOxv/7KWkftg/bKWztwV0ikUDX9eppoqIohMNhQqEQc3NzzMzMEAwGefjwIdPT00xNTREIBPD7/XWnvb2drq6u9TCoHXVWUJWjzXA4zPz8/J6h/H4/kUhk3RX8BxpxoetB4WTGAAAAAElFTkSuQmCC;" vertex="1" parent="WIyWlLk6GJQsqaUBKTNV-1">
          <mxGeometry x="550" y="220" width="38" height="39" as="geometry" />
        </mxCell>
        <mxCell id="mXnRrFpc8J4dxXeiY_ru-46" style="edgeStyle=orthogonalEdgeStyle;rounded=0;orthogonalLoop=1;jettySize=auto;html=1;entryX=0;entryY=0.25;entryDx=0;entryDy=0;fontSize=10;" edge="1" parent="WIyWlLk6GJQsqaUBKTNV-1" source="WeWkUzsG9HBNJlI6EVqi-93" target="mXnRrFpc8J4dxXeiY_ru-25">
          <mxGeometry relative="1" as="geometry">
            <Array as="points">
              <mxPoint x="170" y="330" />
              <mxPoint x="170" y="280" />
            </Array>
          </mxGeometry>
        </mxCell>
        <mxCell id="mXnRrFpc8J4dxXeiY_ru-47" style="edgeStyle=orthogonalEdgeStyle;rounded=0;orthogonalLoop=1;jettySize=auto;html=1;fontSize=10;" edge="1" parent="WIyWlLk6GJQsqaUBKTNV-1" source="WeWkUzsG9HBNJlI6EVqi-93" target="mXnRrFpc8J4dxXeiY_ru-22">
          <mxGeometry relative="1" as="geometry" />
        </mxCell>
        <mxCell id="WeWkUzsG9HBNJlI6EVqi-93" value="&amp;nbsp;&amp;nbsp;&amp;nbsp;&amp;nbsp;&amp;nbsp; Sucess" style="rhombus;whiteSpace=wrap;html=1;fontSize=12;align=left;" parent="WIyWlLk6GJQsqaUBKTNV-1" vertex="1">
          <mxGeometry x="80" y="300" width="70" height="60" as="geometry" />
        </mxCell>
        <mxCell id="mXnRrFpc8J4dxXeiY_ru-38" value="Status &lt;b style=&quot;font-size: 10px&quot;&gt;&lt;br&gt;&lt;/b&gt;&lt;div style=&quot;font-size: 9px&quot;&gt;&lt;b style=&quot;font-size: 10px&quot;&gt;URA_INV_TMOUT&lt;/b&gt;&lt;/div&gt;" style="rhombus;whiteSpace=wrap;html=1;fontSize=10;" vertex="1" parent="WIyWlLk6GJQsqaUBKTNV-1">
          <mxGeometry x="-100" y="290" width="130" height="80" as="geometry" />
        </mxCell>
        <mxCell id="mXnRrFpc8J4dxXeiY_ru-43" style="edgeStyle=orthogonalEdgeStyle;rounded=0;orthogonalLoop=1;jettySize=auto;html=1;fontSize=10;" edge="1" parent="WIyWlLk6GJQsqaUBKTNV-1" source="mXnRrFpc8J4dxXeiY_ru-42" target="WeWkUzsG9HBNJlI6EVqi-96">
          <mxGeometry relative="1" as="geometry" />
        </mxCell>
        <mxCell id="mXnRrFpc8J4dxXeiY_ru-44" style="edgeStyle=orthogonalEdgeStyle;rounded=0;orthogonalLoop=1;jettySize=auto;html=1;entryX=0;entryY=0.5;entryDx=0;entryDy=0;fontSize=10;" edge="1" parent="WIyWlLk6GJQsqaUBKTNV-1" source="mXnRrFpc8J4dxXeiY_ru-42" target="WeWkUzsG9HBNJlI6EVqi-96">
          <mxGeometry relative="1" as="geometry" />
        </mxCell>
        <mxCell id="mXnRrFpc8J4dxXeiY_ru-42" value="&lt;div&gt;Status &lt;b style=&quot;font-size: 9px&quot;&gt;URA_INV_ONLY_RCVD&lt;/b&gt;&lt;/div&gt;" style="rhombus;whiteSpace=wrap;html=1;fontSize=10;" vertex="1" parent="WIyWlLk6GJQsqaUBKTNV-1">
          <mxGeometry x="-100" y="390" width="130" height="80" as="geometry" />
        </mxCell>
        <mxCell id="mXnRrFpc8J4dxXeiY_ru-49" value="" style="html=1;shadow=0;dashed=0;align=center;verticalAlign=middle;shape=mxgraph.arrows2.jumpInArrow;dy=15;dx=38;arrowHead=55;direction=north;" vertex="1" parent="WIyWlLk6GJQsqaUBKTNV-1">
          <mxGeometry x="510" y="170" width="40" height="120" as="geometry" />
        </mxCell>
        <mxCell id="mXnRrFpc8J4dxXeiY_ru-50" value="&lt;div&gt;Update Status =&lt;/div&gt;  &lt;div&gt;&lt;b&gt;URA_INV_TMOUT&lt;/b&gt;&lt;/div&gt;&lt;div&gt;&lt;b&gt;URA_INV_ERROR&lt;/b&gt;&lt;/div&gt;" style="rounded=1;whiteSpace=wrap;html=1;fontSize=12;align=left;" vertex="1" parent="WIyWlLk6GJQsqaUBKTNV-1">
          <mxGeometry x="490" y="-300" width="120" height="60" as="geometry" />
        </mxCell>
        <mxCell id="mXnRrFpc8J4dxXeiY_ru-51" value="" style="shape=image;verticalLabelPosition=bottom;labelBackgroundColor=#ffffff;verticalAlign=top;aspect=fixed;imageAspect=0;image=data:image/png,iVBORw0KGgoAAAANSUhEUgAAACYAAAAnCAYAAABjYToLAAAEoUlEQVRYhe3Y6W8bRRjH8f5tIMT5BlEkDiEB5Q0VEm1aURBVQ1tEC5UQx4sKEC5NldI0pFWgSUtzOHFOJ3EdN2nrHLZ3vV67OXzE1653d+bLC8d2UMhlJWqFMtJPlizL/nifmWdn5wBP6TjwpAEbjacflkqliMfjxONxdF0nFouhaRrRaBRVVVFVFUVRiEQiu550Ov3fMK/Xi8vlwuVyce/ePXw+Hz6fj4mJCcbHxxkbG8Pr9eL1ehkdHWVkZITh4WGGhoYYHBxkcHCQgYEBPB4P/f399PX14Xa7cbvd9Pb2bpmWlhYmJibWwyool8tFIpHY2xptMFwu1z5sH7YPqxsmJQgpcYTEFuVXIUE+SZgtJAVLoKRNxrQ8Q2qOQKLAYt7GsEXduLphEhAS8iVBIFHkoneBT+5EOX5b5WSXxtXAMkraJFW0yZUcDFvgCIncprRumJDlqzW7bHDijsaJO1FuBdN4IlmaJ5d5ry1EY3eMbwcTXLufZG7ZwLQFYpuyumASsBxJruRw/X6SQzfCTD8uUrQEJUeSNhw6ZzKcdeuc649z5JbKmd4YoaTJiuFg2gJbyE3LXBfMEZKiJVjIWVzwxDnfr5MviRpcgulIMoZDsmgzEctzpEPli54YY1qepYJN0SrjdhWWNhyCi0XO9em8+0eIn8YWMe3aj0gqK7VcbsMW3J7J8H5bmHdaQxzvjDKk5lgq2BvOubpgoZTJyS6Nhk6V1qkkjxaLm/57ISFjOAQSBXpDK5x16xztUBmJ5nA2kNUFa51Ocrg9QiBRwLTltlZb5eqZtiSaKdHYE+P74ceYzjZhPza1bQk70xvjS7de7lOrjbTklPtZruSQNf+dgiUwHVn9rCMkl3xLNHSqFCyx7vsrsO8utVZz4IfLW8NO9+h81RfHWl1ZQsJCzqKxO8axTpUjHbU0dJb72vRCsboShQTXTmGVNzeDNU8u89FfCsElA8MWWEKirZR449o8L14O8vylWl74Lcjrv8/h1XKYTrmUStqksVvbWSm3A5tPGhz+U+FUt4Y/XiBVtNGzFj+PL3JhIM55Ty3feOJc9C4QXDJYMR1mlw2+9sT5sD3CaDS3YcOtC5YxHHx6ntM9MY52qPwyvoiSNvngZpi3r8/zZkstb7XMc+hGGK+WZ0DJcmy1tP2RLMniLreLSoONpEwGlSw+PY+aLnG6J0ZDp8rHHUo1RztUTnXHmEwUiKRNBpQss8sGBat879xo1HdLkmWc6UhKjsS0y7uLg1fneM71iGd+reVZ1yNebZ5lWM2V5+PqPLO3aDG7sh8TEvSsxYWBBJ/f1fj072g1n93VONcfZ3qhiLXBRN9TmJYpcfDqHK80zfDS5WA1LzfN8FrzLCPRHNYmpdsTmJSQKtrcfJDiyuQSTf5arviXaHuQIpopbTqn9gQGlduNoGgJCmtStER1bm13k7irMCHBWbPvX5vKM8BOxv/7KWkftg/bKWztwV0ikUDX9eppoqIohMNhQqEQc3NzzMzMEAwGefjwIdPT00xNTREIBPD7/XWnvb2drq6u9TCoHXVWUJWjzXA4zPz8/J6h/H4/kUhk3RX8BxpxoetB4WTGAAAAAElFTkSuQmCC;" vertex="1" parent="WIyWlLk6GJQsqaUBKTNV-1">
          <mxGeometry x="450" y="-300" width="38" height="39" as="geometry" />
        </mxCell>
        <mxCell id="mXnRrFpc8J4dxXeiY_ru-52" value="" style="shape=image;verticalLabelPosition=bottom;labelBackgroundColor=#ffffff;verticalAlign=top;aspect=fixed;imageAspect=0;image=data:image/png,iVBORw0KGgoAAAANSUhEUgAAACYAAAAnCAYAAABjYToLAAAEoUlEQVRYhe3Y6W8bRRjH8f5tIMT5BlEkDiEB5Q0VEm1aURBVQ1tEC5UQx4sKEC5NldI0pFWgSUtzOHFOJ3EdN2nrHLZ3vV67OXzE1653d+bLC8d2UMhlJWqFMtJPlizL/nifmWdn5wBP6TjwpAEbjacflkqliMfjxONxdF0nFouhaRrRaBRVVVFVFUVRiEQiu550Ov3fMK/Xi8vlwuVyce/ePXw+Hz6fj4mJCcbHxxkbG8Pr9eL1ehkdHWVkZITh4WGGhoYYHBxkcHCQgYEBPB4P/f399PX14Xa7cbvd9Pb2bpmWlhYmJibWwyool8tFIpHY2xptMFwu1z5sH7YPqxsmJQgpcYTEFuVXIUE+SZgtJAVLoKRNxrQ8Q2qOQKLAYt7GsEXduLphEhAS8iVBIFHkoneBT+5EOX5b5WSXxtXAMkraJFW0yZUcDFvgCIncprRumJDlqzW7bHDijsaJO1FuBdN4IlmaJ5d5ry1EY3eMbwcTXLufZG7ZwLQFYpuyumASsBxJruRw/X6SQzfCTD8uUrQEJUeSNhw6ZzKcdeuc649z5JbKmd4YoaTJiuFg2gJbyE3LXBfMEZKiJVjIWVzwxDnfr5MviRpcgulIMoZDsmgzEctzpEPli54YY1qepYJN0SrjdhWWNhyCi0XO9em8+0eIn8YWMe3aj0gqK7VcbsMW3J7J8H5bmHdaQxzvjDKk5lgq2BvOubpgoZTJyS6Nhk6V1qkkjxaLm/57ISFjOAQSBXpDK5x16xztUBmJ5nA2kNUFa51Ocrg9QiBRwLTltlZb5eqZtiSaKdHYE+P74ceYzjZhPza1bQk70xvjS7de7lOrjbTklPtZruSQNf+dgiUwHVn9rCMkl3xLNHSqFCyx7vsrsO8utVZz4IfLW8NO9+h81RfHWl1ZQsJCzqKxO8axTpUjHbU0dJb72vRCsboShQTXTmGVNzeDNU8u89FfCsElA8MWWEKirZR449o8L14O8vylWl74Lcjrv8/h1XKYTrmUStqksVvbWSm3A5tPGhz+U+FUt4Y/XiBVtNGzFj+PL3JhIM55Ty3feOJc9C4QXDJYMR1mlw2+9sT5sD3CaDS3YcOtC5YxHHx6ntM9MY52qPwyvoiSNvngZpi3r8/zZkstb7XMc+hGGK+WZ0DJcmy1tP2RLMniLreLSoONpEwGlSw+PY+aLnG6J0ZDp8rHHUo1RztUTnXHmEwUiKRNBpQss8sGBat879xo1HdLkmWc6UhKjsS0y7uLg1fneM71iGd+reVZ1yNebZ5lWM2V5+PqPLO3aDG7sh8TEvSsxYWBBJ/f1fj072g1n93VONcfZ3qhiLXBRN9TmJYpcfDqHK80zfDS5WA1LzfN8FrzLCPRHNYmpdsTmJSQKtrcfJDiyuQSTf5arviXaHuQIpopbTqn9gQGlduNoGgJCmtStER1bm13k7irMCHBWbPvX5vKM8BOxv/7KWkftg/bKWztwV0ikUDX9eppoqIohMNhQqEQc3NzzMzMEAwGefjwIdPT00xNTREIBPD7/XWnvb2drq6u9TCoHXVWUJWjzXA4zPz8/J6h/H4/kUhk3RX8BxpxoetB4WTGAAAAAElFTkSuQmCC;" vertex="1" parent="WIyWlLk6GJQsqaUBKTNV-1">
          <mxGeometry x="250" y="-180" width="38" height="39" as="geometry" />
        </mxCell>
        <mxCell id="mXnRrFpc8J4dxXeiY_ru-53" value="" style="shape=image;verticalLabelPosition=bottom;labelBackgroundColor=#ffffff;verticalAlign=top;aspect=fixed;imageAspect=0;image=data:image/png,iVBORw0KGgoAAAANSUhEUgAAACYAAAAnCAYAAABjYToLAAAEoUlEQVRYhe3Y6W8bRRjH8f5tIMT5BlEkDiEB5Q0VEm1aURBVQ1tEC5UQx4sKEC5NldI0pFWgSUtzOHFOJ3EdN2nrHLZ3vV67OXzE1653d+bLC8d2UMhlJWqFMtJPlizL/nifmWdn5wBP6TjwpAEbjacflkqliMfjxONxdF0nFouhaRrRaBRVVVFVFUVRiEQiu550Ov3fMK/Xi8vlwuVyce/ePXw+Hz6fj4mJCcbHxxkbG8Pr9eL1ehkdHWVkZITh4WGGhoYYHBxkcHCQgYEBPB4P/f399PX14Xa7cbvd9Pb2bpmWlhYmJibWwyool8tFIpHY2xptMFwu1z5sH7YPqxsmJQgpcYTEFuVXIUE+SZgtJAVLoKRNxrQ8Q2qOQKLAYt7GsEXduLphEhAS8iVBIFHkoneBT+5EOX5b5WSXxtXAMkraJFW0yZUcDFvgCIncprRumJDlqzW7bHDijsaJO1FuBdN4IlmaJ5d5ry1EY3eMbwcTXLufZG7ZwLQFYpuyumASsBxJruRw/X6SQzfCTD8uUrQEJUeSNhw6ZzKcdeuc649z5JbKmd4YoaTJiuFg2gJbyE3LXBfMEZKiJVjIWVzwxDnfr5MviRpcgulIMoZDsmgzEctzpEPli54YY1qepYJN0SrjdhWWNhyCi0XO9em8+0eIn8YWMe3aj0gqK7VcbsMW3J7J8H5bmHdaQxzvjDKk5lgq2BvOubpgoZTJyS6Nhk6V1qkkjxaLm/57ISFjOAQSBXpDK5x16xztUBmJ5nA2kNUFa51Ocrg9QiBRwLTltlZb5eqZtiSaKdHYE+P74ceYzjZhPza1bQk70xvjS7de7lOrjbTklPtZruSQNf+dgiUwHVn9rCMkl3xLNHSqFCyx7vsrsO8utVZz4IfLW8NO9+h81RfHWl1ZQsJCzqKxO8axTpUjHbU0dJb72vRCsboShQTXTmGVNzeDNU8u89FfCsElA8MWWEKirZR449o8L14O8vylWl74Lcjrv8/h1XKYTrmUStqksVvbWSm3A5tPGhz+U+FUt4Y/XiBVtNGzFj+PL3JhIM55Ty3feOJc9C4QXDJYMR1mlw2+9sT5sD3CaDS3YcOtC5YxHHx6ntM9MY52qPwyvoiSNvngZpi3r8/zZkstb7XMc+hGGK+WZ0DJcmy1tP2RLMniLreLSoONpEwGlSw+PY+aLnG6J0ZDp8rHHUo1RztUTnXHmEwUiKRNBpQss8sGBat879xo1HdLkmWc6UhKjsS0y7uLg1fneM71iGd+reVZ1yNebZ5lWM2V5+PqPLO3aDG7sh8TEvSsxYWBBJ/f1fj072g1n93VONcfZ3qhiLXBRN9TmJYpcfDqHK80zfDS5WA1LzfN8FrzLCPRHNYmpdsTmJSQKtrcfJDiyuQSTf5arviXaHuQIpopbTqn9gQGlduNoGgJCmtStER1bm13k7irMCHBWbPvX5vKM8BOxv/7KWkftg/bKWztwV0ikUDX9eppoqIohMNhQqEQc3NzzMzMEAwGefjwIdPT00xNTREIBPD7/XWnvb2drq6u9TCoHXVWUJWjzXA4zPz8/J6h/H4/kUhk3RX8BxpxoetB4WTGAAAAAElFTkSuQmCC;" vertex="1" parent="WIyWlLk6GJQsqaUBKTNV-1">
          <mxGeometry x="180" y="750" width="38" height="39" as="geometry" />
        </mxCell>
        <mxCell id="mXnRrFpc8J4dxXeiY_ru-56" value="&lt;div&gt;&lt;b&gt;RETRY=&lt;/b&gt;&lt;/div&gt;&lt;div&gt;&lt;b&gt;RETRY+1&lt;/b&gt;&lt;/div&gt;" style="triangle;whiteSpace=wrap;html=1;fontSize=10;" vertex="1" parent="WIyWlLk6GJQsqaUBKTNV-1">
          <mxGeometry x="-140" y="290" width="60" height="160" as="geometry" />
        </mxCell>
        <mxCell id="mXnRrFpc8J4dxXeiY_ru-58" value="" style="points=[[0.5,0,0],[1,0.5,0],[0.5,1,0],[0,0.5,0],[0.145,0.145,0],[0.8555,0.145,0],[0.855,0.8555,0],[0.145,0.855,0]];verticalLabelPosition=bottom;html=1;verticalAlign=top;aspect=fixed;align=center;pointerEvents=1;shape=mxgraph.cisco19.rect;prIcon=clock;fillColor=#FAFAFA;strokeColor=#005073;" vertex="1" parent="WIyWlLk6GJQsqaUBKTNV-1">
          <mxGeometry x="-330" y="350" width="50" height="50" as="geometry" />
        </mxCell>
        <mxCell id="mXnRrFpc8J4dxXeiY_ru-72" value="" style="shape=image;verticalLabelPosition=bottom;labelBackgroundColor=#ffffff;verticalAlign=top;aspect=fixed;imageAspect=0;image=data:image/png,iVBORw0KGgoAAAANSUhEUgAABFgAAAB0CAYAAACxIob7AAAgAElEQVR4nO2dO67cSNKF6cuVKavN8X6h5XAB2oOABtqjozW00Ub7dIU7EgaYBgaaBXAH7cm8Hv32Zg35G1WsykdEvopVySK/Axzg3io+IzIYkYeZWd3ff/9t/v77b/Pf//7XLH/D4/DPXzrz8+9/BZ//9fvPpvvlz+bXBx/LYz0H/jS/dJ3pLvzZ/P5X62vC33fhX7+bn21f//y7+av1NR3Ot88Rb9uz2xZ8JdcJR+Jztos/zS8bjbP92/7MP395+jh6avvvilo87yPO90A7Vrrlj//85z/NLwxC2JY8B45F/L1f4lvsBtcj7QLbH5XYH8I82rFyEVj+/e9/N78wCGFb8hw4FvH3folvsRtcj7QLbH9UYn8I82jHykVg+de//tX8wiCEbclz4FjE3/slvsVucD3SLrD9UYn9IcyjHSsXgeWf//xn8wuDELYlz4FjEX/vl/gWu8H1SLvA9kcl9ocwj3asdF+/fjUvLy/my5cvEEIIIYQQQgghhLCClxEsX758McZ0EEIIIYQQwjO/ffvW/BoghBBunScgsEAIIYQQQqgQgQVCCGGaJyCwQAghhBBCqNJs4BoghBBumycgsEAIIYQQQqjSbOAaIIQQbpsnILBACCGED+bQdWbawHVAuFVuK0bMY84zd6bvOtN1nRnn7dlnWz5pS2wBYT7nsTP9uP5xtxeHJ6gCyzScHvBddx+D1HAaOtMN7a8DwqNQew6Mfbr4q9kWNqJV1Pvcsu/8trVWjhi6znR9Z2bvszWT+KOLguB8Z58vn4192u9Dl2/f2PEGv5318fanHWvsOzNM1nmn0G8S7edaavtH2+1eRahz709SR22pcNbWYCnx7dJeYs+sacj3/5EFFieGBR+k4rLkGbB1Wzyavm1veV499HnkPbtj/dx5DHOUXw/k1gg5OaKlL7XrWdPPi00RWLwiZRq2dvEQwrsz8hxAYNkv793BW5P3altD15ne67wfQWC52HI6FVT29vPYmX5w98n2jXe8IVJkSu1PPZb3jAoEF4FBQT9dzzcJhf6j7fZM8ffwNtuQksBS6tugvQichnQbbmmfLfhkGsLO7di7cR2Ly9gz4Nls0YJPW9PZz+5IfSu1L/+zkhohlSO26ks/nw5d/rNJIgLL0gA0RXeSlThH7bMeXEPXmdH6zneWpuqNfWeGwVXNAud413KL4yGEHpXngKNqn7/XYlnb1n4Y2v/7ivm2HprHoNbB9Z/Hsed37Lmv+Th2PCnvSG2rJEekctPynX190t/Bd31nxsG9v+Xe7Gvzz29/p+VTyQ+5LBIKhO2X73NEjNTxbhJYTPjMGKYub/TKHOkMn79rbTf//rV26o90mEerrUTafSpGUjWdb5tYDD1bjMQoCSyabzW7pJ5Z0qiK1HPWjqnlPKrvFF9Ha+nJPZZ9zpw2sjq1GM6Ny9gz4Nls0Yhap7ymtlsrZxe3HS1fRNqHnbdSNULMXlntxmtrY59Xf8Sei779peeRf922je2coz2XYnmp1NdZ9eCg270dT0hOEfITlFgYzSclz1YCF0M5wydjyp3wJsp/SDnOOQfB5Vr8/yGEN1N7DkTfYAixHOuAXP6f9l+YPAO1Dm7UN57P1ed+ro+F40ntzW9bJTkilpuW8/kFRZbA0oUdpnHugsLN3s65tkg+TfohwuKRGHbBZV9Tpg9jx4sVT1kjWIRrG3IEjNTLo7693SSBRY0l6TmbaPeigFNQ0/m2icXQs8VIjIHAEvFtzC7RZ1bE1locLeLUZZ9EPS76OvGc9EW3KXGeuzISw/a1qnEZewY8my0a0e+s2+2rtLZbK2dnUZkiFHT6lfZhCw6pGsHfT2yLmbHqtLWYnbXjReyfPYIl1seOxJd9/Oo+fKQe9G2zDZ6QXOR2CaRx1hteMFet0xucqrR1ulPEQBQaTMncVQhhPp3ngJGLxNxYThXe23tYHos5IwhSPq/xsXq8RMGjdlYSOSJ1jX6Hr0RgcXKcMmzdP8ZSDMXy6S1Ds4vWEvHsndUpF3yjHa9mBEvsTVv2PP47CSxr2k3aJ6udRoQcu90HMVJY08Vs8+wxEqMvsMR8m3qTXyKwpJ6z/ptf1TZa24+1F2Gf5V5y28jqLBBYxLhMPQOeyRaNWDOCJZb318jZWVRGp+T0c5ftAgFEqRGk4/ttsSRWc56tqb64ZP+SNVhKnkuSEF7i65J68OlGsIg3HUvGkSGkqtJmf+c5olZg2bNqDGFL2g8/Jz4LYzknSSK0tGOWwJLwebGPY8dbWWBJvm0zbqG+tPuHdh4r3jalGHTuIyMxxl4YRVHYgUgdr3aKkH8sbR+RSoFtf9fabiUCy9I2S9p9tsCSIVg1FVjuECNxmuDea14sFgksOc9Z702+aptCgUWbdud05lqMONViODcuY8+AZ7NFI9YILPZnfntdI2ff1HaMVd9GtvFF1FiNoNnLboslsZotsCTaoW//kjVYVDsqQor/bMv2dWE9+FQCyzy6Rr0YWRvCk2iQ6pAxbyhT0QiWkuFFEMJiqs8BExnyaNKxbA9njg3vy12zAK7v96TAkvB5biGkrZ/hHC/ybL91ilCOwGL/wpL9vdaGSzqP6vSHjEKtlNKvlaiLQtrXIHXMYm+BU8fz7Vva/gT7lCyeF0whmTvTD9fvWtutRGCxp0eptZD3fzRGjHAfEaZi6NliJE4T96P12WoCS+Zzdh7D56UmQBRNERLajiqKP5DSNDBf3Iw9M9RnwBPaogVjAktpbbdWzs6i5adUfSv+KpU3DTBWI6j2sttKZqxKz0/RzpntUK3lI9s5TDyXxLxU4uuCevAppwg56rzVqPxhO/5N+p+n3r7Y5xhKBJbFydY56YxBuC6Tz4FzzMZi2d/Wjltb9Q+GBB7ojdCWmDtFKObz7CGsfsc11Ya0vHPetnQRtSyBxbq2SThubHRLqvOYtYCndS23dh5j01n8Yy9v5bSpt6npLtrxln21dpDT/qSF9EqG5GsLLm7BbkUCy3JtUmdfaffSW8WSms6/F/XanjRGdBq1/fm+jdkl9czyR2LnPmdjw+uTPk20F9v+9mKbOW3kXvRj2I/N1DNDfQY8oS0eTTXGKmq7tXJ2ioN1Xf5nUr3pt4/UeqRBjRCxV2msBqNjIs9W6Xgp+0t5bblurV8dey5d7Od9VuLr3HrQj8Nt8ISsKUIQQgghhBAekdKvCMGNcdq/uAGPye1Ng4nz2Et2nIDAAiGEEMJiSutQSG/7uK7nuj4YEoEFwu1zr8/WpxJYDjZlLuQJCCwQQgghhBAqRGCBEEKY5gkILBBCCCGEECpEYIEQQpjmCd3Xr1/Ny8uL+fLli/nfb/8HITwwpaGVEEII4ZH57du35tcAIYRw23x9fTWvr6/uCJbWnTsIYVt23VV9BfsH/t4v8G0dsBsA2wIx2RbYH4A82LGCwAIhvJBEeizg7/0C39YBuwGwLRCTbYH9AcgDAguEUCSJ9FjA3/sFvq0DdgNgWyAm2wL7A5AHBBYIoUgS6bGAv/cLfFsH7AYknBa5BS1ATLYF9gcgDwgsEEKRJNJjAX/vF/i2DtgNSEBgaQdisi2wPwB5iAssn9+ZD+LKuG/MH5/PHbFPb03XdebXT14H7fz5wg8f/6F8Zx3rt/8z398r+0AIH0oS6bGAv/cLfFsH7AYkILC0AzHZFtgfgDxkj2D58fFNIHh8f9+Z7v1P5vt7X2D5yfxqCyef35kPy/+f35kP3Vvzfdn201vTLf9/emu6d+/Mj8vxre1a8/M78+H9T+2vA8IHkUR6LODv/QLf1gG7AQkILO1ATLYF9gcgDzcJLAsDgeXTW9N5YsT396cRKT8+vvG+s8QYT2Bxt7HFFu9/ZUTMj49vrp9fzvkP88c7ezTOchzt8zMRWODBSCI9FvD3foFv64DdgAQElnYgJtsC+wOQh7sILKGIYu1vj1j57f/MImws+y9ThNxzxQQWb7TMws/vzAdnNMz5HIL487/fIp/bx0NggQciifRYwN/7Bb6tA3YDYFsgJtsC+wOQh8cLLL+566xI67BcR5Msn0cEFmXUizN6xVnT5SfzqzRCRflcOk64L4T7I4n0WMDf+wW+rQN2A2BbICbbAvsDkIeHCSzLFKFwf188kfapFFiiI07KhBZGsMCjkUR6LODv/QLf1gG7AbAtEJNtgf0ByMN91mCxF7WV/vf2XYSQHx/fWMexpw6dRI/lu9OokrMAoh3bX0xXpDs9Kfo5Ags8GEmkxwL+3i/wbR2wG5DAGiztQEy2BfYHIA+3/4pQ4uebF17ECv+nn4MFb5XvrON9+PjOGdHiTuNRFrk9fx5M+bHEHenzCxFY4MFIIj0W8Pd+gW/rgN2ABASWdiAm2wL7A5CHbIEFQngskkiPBfy9X+DbOmA3IAGBpR2IybbA/gDkAYEFQiiSRHos4O/9At/WAbsBCQgs7UBMtgX2ByAPCCwQQpEk0mMBf+8X+LYO2A1IQGBpB2KyLbA/AHlAYIEQiiSRHgv4e7/At3XAbgBsC8RkW2B/APKAwAIhFEkiPRbw936Bb+uA3QDYFojJtsD+AOQBgQVCKJJEeizg7/0C39YBuwGwLRCTbYH9AcgDAguEUCSJ9FjA3/sFvq0DdgMSWIOlHYjJtsD+AOQBgQVCKJJEeizg7/0C39YBuwEJCCztQEy2BfYHIA8ILBBCkSTSYwF/7xf4tg7YDUhAYGkHYrItsD8AeUBggRCKJJEeC/h7v8C3dcBuQAICSzsQk20R2n8yQ9eZbpiaXI8xxph5NH0/mvme55gG03Wd6ce7ngXsCBkCyz/MH+8603VXfvj4j+pO2/f3nene/7RSJ/An82vnHy9+vT8+vlGv//v7de4Rwj3QTaSzGXs3rk6JZjJDNxgntc6j6a3PpsHfJ4557K3tzsnbSZ7LOU/XFOT1afC2D87g3Utv/Muyr/l0rNS5Qvs0LTgqIBau56JCvG/HPlfMYx+1rb3N9bjPb78tg05JHbAbkIDA0g7EZFsE9p8GN1cX1H9urSDVeVrtZ4Lj9ON8Ol6w/VKDLDWGVJOcz3U5tnye4F4BiCBTYHlj/vjcvsPn88fHN+bD+7fmQ/fWfHeutzO/flr+P4kwy/+qwPLprenevTM/zv9/f28fE8LjMRRYtMQUEVg8sWMahKTlIRRYetM74sb1nPPYBwlvGlJCjncv02Al1nNBYB9zGq7JWz2Xb59zMr/3W5UV4RdOix2mwRdYJjNc7ut0n46/rHuWbLa8bRqHUGChdrkP6JTUAbsBsC0Qk21RJLBE6r9pCOsj97N47WftFYgoSz3i1oKnGm0Y+rA+nAbT9b0lDCkCyyNGyoDd4AaB5SfzqyNs2P/7o0iu2wUCx6e3joLpCiNvzR8f3wjf2dflCyr+/6eRKcs5cwWWvPv0r9+yk/L5D+t+riNvNHvpdoTw3ryHwJIDSWAZR1sEsc7pvS1xk616Bu9eYsdT7is4l2Sf01uRZxENtMI1FFhcuP4K93W/u9ppQmB5GOiU1AG7AbAtEJNtcYvAIm7jHsyqqRK1X+r8wTnOtceU8zkCC7gdVVOETuJFRHj49FadBuQIHJ/fmQ+2KOH8703/+fTWFRg+vzMfFkHEOZ8nsHjnyJki5H4fE1h+Mr92mvgkfG5f8/l8v36K2CtiRwjvzdQUoVNOy58ilDt3VRRYZruzbp/T65hnCTrCCJZln+j+sXPJAlR6NM12UCewhMKIM+zX29H2rSSwhO0LrAE6JXXAbgBsC8RkW/j2D16w5NR/ap1l1xOp2u96fL9WWM7pfr7UaF7NsogmMwILWBd3GsFyFkeEEReOwCEICNfRJvGRI65QYgsamiAk7Sdx2d8WeiJCkjTqRfncGb3irPWi2Uu3I4T35iojWJz99TU53N1lgeV6XO+c1huMPEHD68zbCTMl0Kjn0gWWZxEKagQWcQqQ//1iT6HwUnf1pm2B20CnpA7YDUhgDZZ2ICbbwra/OHo1p/4rFFjU2k8RQuSXelaN5tVxw+RftyKwLPeHyAIycCeBxf4sMkVIEViSI2Qux5XEinCKkM20wHK9jqTQUyOwREekILTA7TBfYPE+j0yzyRFAVIHlsv+oJNlIUnTPYN2Lt4ZIbIpQ9FzaFKG0oLQVlAos4YJy4t5XG9gL4waLJUf2AzeDTkkdsBuQgMDSDsRkW5SOYLFxqf9KpgjFaj9p0dlFvNGmCDnH1qaHa7Vkbo0JwM0Ci7t4rCwAuIJH2RShAmHj8lmdwPLj4xtlHZfIffrX/5t0H/7nKZFEu/74fUG4NvMElnBRWPv/eeyL19mICSynJGiv9n49Z9/HR1Oo9+Ik1vObFn9Or3d/4blC+0iLuG0ZJQJLsBDw9YtggWBtJAojWB4HOiV1wG5AAgJLOxCTbVGyBote/wl1VvBZqvaT6kn3M3eErVujBaNcmCIEVsZtvyJkLeT64eO7iwASTIWxRm2ULnIrCSz2orX/c76XFr11qY9g8UbF2CNNlPv8X3CvymK2ic81e8XsCOG9mSuwRKfcXH7+Lv+nd6MCi1kSo7DQWfa6HbIY4k73sUdZ5Jzr+X9m2C+cnJ+q7qzhvZdCR7JRwnbe8d1fB8jbD5SDTkkdsBuQgMDSDsRkW+gCyzWHu/WbVhOFNZM7mjVR+wliRzhl2f6hAenFmvaiza9HrNoHgQVkIkNggRAekRQyxwL+3i/wbR2wG5CAwNIOxGRbJEewPAixXy+8GxrdK3hOILBACEXer5Dx3w6k1uPY6jn2BQrX/QLf1gG7AbAtEJNtEdr/XGs9VHiIjai+1ylPI3epH0EuEFgghCIpZI4F/L1f4Ns6YDcAtgVisi2wPwB5QGCBEIokkR4L+Hu/wLd1wG4AbAvEZFtgfwDy4AgsX79+NS8vLwgsEEJxeg2EEEJ4ZH779q35NUAIIdw2X19fzevrKyNYIIRXdh1vKo4E/L1f4Ns6YDcggUVu24GYbAvsD0Ae7FhBYIEQXkgiPRbw936Bb+uA3YAEBJZ2ICbbAvsDkAcEFgihSBLpsYC/9wt8WwfsBiQgsLQDMdkW2B+APCCwQAhFkkiPBfy9X+DbOmA3IAGBpR2IybbA/gDkAYEFQiiSRHos4O/9At/WAbuB5phH03ed6brejHNsw8kM3WCmR11Xo3NuMyZb2L4NQvtPZug60w0N734eTd+PJhoet2IaTNd1po8HIQAXILBACEW6iXQ2Y++ujn1KNEJhMY+mtz6bBn+fOOaxt7Y7J28neS7nPF1TkNenwds+OINyL9L5w3u4Hts//2SGZBG8XYiF67moEG0c2OOEeewt28r2WLa5Hjf0SdOCbWfYZqdk+3DtlnrW+W1YavsVnZGHxSC4DZJvY/nLmFObcf0zDe4xpiG3U/ekAkth+5aeZU5+DnyQjks5vxfdxMPtYEwszu+XTwP7T4N77IL6z71+KU5iseMepx/n0/GC7Re7LDaJPJcvx1b86d8rABEgsEAIRYYCi5aYIp0OT+yYhnQREgosvekDIeN0nHnsg4SXLkglYeT6vy+w+AWvmYbz9/ZxFLHnieAXTst9T4N/X5MZPJHJ8Zflb8k/y9umcQgFlme235aBwFKHcoHFekZOg1WwL5v3ph8GpwMSw2NjENwC2bfx/KXn1StC36tbPp3AUtO+xTzldKrPHenLAeNxqef3ojt5uB3icX6/fFoksETqv9Bv/mep2LE/c0WUxUZuLXhqB8MQvkA7XWdvxa7iz0eMlAG7AQILhFDkPQSWHEgCyzgO8tsF721J3iiSsPiwE7Fz/uD48nHy3zJuF1onPFXgSyN+7H3d767taEJgeRgQWOpwk8ASbL98X97WHxODIBfhGiyab2P5yxtlcM6Tti/DkRXLm3Zp1ILd3sKXBuJIBnt0ROeLENfzuINyrO+GwWnj6nkSKGnfTkxq+Tk3LqP53WzaDtK+rpiwPYFF3MY9mFW/JWq/1PmDc5zbwZTzOQILuB0ILBBCkakpQqeclj9FKFeAEAWW2S4g/DeAViGRJeh4+8yj6a3i0jl/9HiWTXbQS6kTWMJCLlZc+p2H2BShHZh0M0BgqcPNI1jsZ4ddnBcONX9MDIJcBAKL6tuc/OW+EJBGUKo+ctrYclxXXPE7hdfjKS8jvHzo/u/uc2pnllghnieNkvbtxKSan/1RDUpcxvL7xu1wPW/OtKj14tzPJYHok1P/qXa37zEVO9fj+/e2nNP9XBFBF3/NCCxgXSCwQAhFrjKCxdk/Z6E+XWC5Htc7p1XQ5o0kiRcfpQLLMCbegj0JagQWcfqB//1iP6HwinYcdmDTrQCBpQ43rcEirJcgPtcy0CQGgQpfYNF9m8pf5QKLvm7FdXRLdPuls6vlNkH8u+TVYB9vuq50ngyUtO86gUWJy1h+37gdxO9j97JSPrXtL46oyan/CgUWtfZThBD5pZ4Va17NOEz+dUemfCGygEwgsEAIReYLLN7nkWG3OQJIrCNy2n9UkmzuPOj48NmaKULR4uZJUCqw5N2z5T9vuHW8+HzuBYO3BgSWOoQCS+xZZz8jhfUSstt+iDYxCDS4AkvMt6n8VSiw+PnI6eyd85/XmVY75oUCyzBJ+8TXQ8tFSfu+bYqQF5ex/L5xOwh7R3Lmevm0dASLcxVL/VcyRShW+0kjARffaFOEnGNr08W0WvI4vxYFbgcCC4RQZJ7AYoJF4uz/57EvXmcj+qb38pOV4TDRvs8tbAoElmDBvPM1nF55OMcJFst7MpQILOq9+gVP5M0ZI1geBwSWOmgLP8v/e8/I1FoEBetTNYlBoMIRWKK+TeWvQoElWDTUH8FidfKVUUvWidwpMNrn9v/CdNpO7KCWoaR9i1OXhekx/uKmYlzG8vvG7VAS5/cawSJeh3X/ev2n+02aXnc9rh870jQgb+0h5fkcjHJhihBYGQgsEEKRuQJLfGi893Yvo5pPDaU/JUZhobPsecYlAotwf2qC9+a+PxnEzqTzVtYuLv3vlGkSkaLOLSb9t8CIK2sCgaUOod1izzr5J3f7cVZG7qXfKj82BkEN4r5N56/LlBJhkdtle39BdmdxVUFg8a9L+zlf9Wd+I4u72vv042TGXlncNWPERE37TsZkEJt6XMr7eyMkNmqHeJzfL5/qAsv1nOrIvcQ6MW4cJWJHEDvC0UN2TSYJbZrwpiwmjcACCoDAAiEUSafsWMDf+wW+rQN2A2BbyI7JacgSN0AZkiNYHoTYLyrdDY3uFTwnEFgghCLv17mQ56yvuxbAI86xL9CZ3C/wbR3ubzeeU2DPWL99P+ezbD9xHtr/fG8PFR5iI6rvdcrTaKJn8xdoBwQWCKHI5yxkQC3w936Bb+uA3YCE4GeawcNATLYF9gcgDwgsEEKRJNJjAX/vF/i2DtgNSEBgaQdisi2wPwB5cASWr1+/mpeXFwQWCKE4nBVCCCE8Mr99+9b8GiCEEG6br6+v5vX1lREsEMIru443FUcC/t4v8G0dsBuQwAiWdiAm2wL7A5AHO1YQWCCEF5JIjwX8vV/g2zpgNyABgaUdiMm2wP4A5AGBBUIokkR6LODv/QLf1gG7AbAtEJNtgf0ByAMCC4RQJIn0WMDf+wW+rQN2A2BbICbbAvsDkAcEFgihSBLpsYC/9wt8WwfsBppjHk3fdabrejPOsQ0nM3SDmR51XY3Ouc2YbGH7NgjtP5mh60w3NLz7eTR9P5poeNyKaTBd15k+HoQAXIDAAiEU6SZSoYCYR9NfPpvN2NurZ0vFYFkinsfeSmbnfZ0kulzT6dzBYafB2z44Q/Kap8H6vh/NnDyXf8zGhUcBxML1XFSI9+vY5Yp57BPt4LrN9bjPa7dnwDY7JdtH62fgaZc1Y5A4WwPyGiySb2N5y5iTP9x2Mg3uMaYht1P3pAJLYfuWnmVOng58UJPni2/i4XYwJp1rXbus0zYC+0+Da2/nmeheg9+O3euX4iQWO+5x+nE+HS/YfrHL0g4iz+XLsRV/+vcKQAQILBBCkeWdCytxTUOQ0OexN/0wOMk3hlBg6U3viBvXa5rHPkh86cI0fs1+oWum4ZrE1XP5BfM5qd/77coK8Aun5f6nwS/6JjNc7ud0f46frHuVbLW8bRqHUGChdrkPEFjq0PoZuH4MEmdrQBJYZN/G85YksPgIfa9u+XQCS037FvOUk1/POddp8+V5vvBOHm6HVK4N7mslFAks3kuuafDs7tVF7mep2LE/c0WUxUZuDXhqB8PQh/6dBtP1vRW7ij8fMVIG7AYILBBCkTd1LoLtl+/zC3xJYBnHQX7L4L01cZOuegb9moPjafftn0sqmE9vR7beqdE64akC3/VTuK/73dU+EwLLw4DAUofWz8DLkVaLQeJsDYQCi+bbWN7yRlacO262L8ORFcubdmnUgt3e3JzjjBTwxATxWM7nXnuxvxsGp42r50mgpH07Manl6dy4jOV5/143ZgdpX7deuo/YdovAIm7jHsyqpRI1X+r8wTnO7WDK+RyBBdwOBBYIocib397aichOTJnDLEWBZbYLCf9NoFWcJKcHJa45un/sXPIbyfxh3u1QJ7CEHbZYcel3HmJThOgErgcEljq0fgZezrxaDBJnayAQWFTf5uQtN1/4neio7502thzXE/S9TuH1eMpLiHk0vf2587+7z6mdWWKFeJ40Stq3E5Nqno689MjN8xu3w/W8QpzPo+n7/rx2z7pTAf1cEog+yhQhZxvV7vY9pmLnenz/1pZzup8rIujirxmBBawLBBYIocib1h8Q5gpLYkkM6j6X83rXZBW2eYJG5JpTAo16Ll1g2XpHpkZgEacA+d8vdhQKr2jH4SCLBj4CCCx1aP0MvJx5rRgMD0ycVcAXWHTfpvJWucCir1txHd0S3X7p7Go5ThD/Ljku2MebpiudJwMl7btOYKnI8xu3g/i9kmvXHEVr218cUSOOTvHWPykUWNSaTxFCRFHHjjWvfhsm/7ojI0cmRf4AAAq+SURBVIAQWUAmEFgghCLDzoXXIVDf3gpzhb2CI6foiHVIToXOqCTb3OGxkWtODR1Wz6VNEcrvTLVCqcAS7bhd977euzfcOt4OnsNmzwIEljq0fgZezrxWDBZ9B/IQ820qbxUKLH5ecjp751zkiWZqx7xQYBkmaZ/4Omi5KGnft00RKsjzG7eDsLcgSKSPXYrSESzOFS4CVckUoVjNJ40EXHyjTRFyjq1NF9NqyOP8WhS4HQgsEEKR2qKn8v9eoZiah5sxhSf6xvfy05VhEdH3uQVO5JqDhfLO3/u/7hCcS/lViCd441EisKgL6PkFT+QNOSNYHgcEljq0fgba57lHDBJnKyDq21TeKhRYgkVD/REsVidfHc1gX0vhFCHvu2BqTGVbKmnfbkwKeToQNyvz/MbtEI9zYRrMSkJqyRos89gr66zpfpOm112P68eONA3IW3tIeT4Ho1yYIgRWBgILhFBk2CmLDYGXhYV+nJXpOuk3p6kh9acEKSx4lj0UVr9m8X6zzvW8P4Mqdiadt7J2cel/p0yTiBSabjHpvwWm07cmEFjq0PoZuH4MEmdrI+7bdN66TCkRFrldtnf70XZuGaxfknE7hfZ1aT/nq/7Mb2RxV3uffpzM2CuLu2Z06GvadzImg9i8Ic9v2A7JXOvtu1YZogss12eLOnIvsR6UG0eJ2BHEjnD0kD01ShLaNOFNWUwagQUUAIEFQiiSTtmxgL/3C3xbB+wGJEg/0wweg+yYnIYscQOUITmC5UGI/aLS3dDoXsFzAoEFQijy/p0Lee56ydoE2zjHPkBncr/At3XYxzMQrA0Ellys376f81m2nzgP7X++t4cKD/KPCdz3lKcRQc/mL9AOCCwQQpHPWciAWuDv/QLf1gG7AQkILO1ATLYF9gcgDwgsEEKRJNJjAX/vF/i2DtgNSEBgaQdisi2wPwB5cASWr1+/mpeXFwQWCKE4nBVCCCE8Mr99+9b8GiCEEG6br6+v5vX1lREsEMIru443FUcC/t4v8G0dsBsA2wIx2RbYH4A82LGCwAIhvJBEeizg7/0C39YBuwGwLRCTbYH9AcgDAguEUCSJ9FjA3/sFvq0DdgNgWyAm2wL7A5AHBBYIoUgS6bGAv/cLfFsH7AYksMhtOxCTbYH9AcgDAguEUCSJ9FjA3/sFvq0DdgMSHiqwzKPpu850XW/GObbhZIZuMNOjrqvRObcZky1s3wah/SczdJ3phoZ3P4+m70cTDY9bMQ2m6zrTx4MQgAsQWCCEIt1EOpuxd1fHPiUaobCYR9Nbn02Dv08c89hb252Tt5M8l3OerinI69PgbS/Dvi5/+3ns3dXAne8XW0gF7/l6L/ev2c2+D2l/+9z9ucD22ZtxFravLHTEwvVcVIg2zrKd3ClYtrkeN7RT04JtZ9hmp2T7cO2Wetb5bTjyfChp23eIQefZd5CO4ZqQBRbJt7H8Zcypzbj+mQb3GNOQ26l7UoGlsH1LzzK3Pfs+SMdlrBbIvImH28GYSJzb+6wc54H9p8G1d0H9F6+zUrHjHqcf59Pxgu0Xu5TUbYo//XsFIAIEFgihyFBg0RJTpNPhiR3TkE7yocDSm94RUq7nnMc+SHg5BalfxJppuOwzDWEh4352ssUw9OF5puEsiLidLvfal/81gUV/U+naJr19CfzCabHRNPhF32QGxxaeaGTZTvLP8rZpHEKBhdrlPkBgqUO5wOJ3ctzt57E3/TA4HZAY7hGDwbMPFEMSWGTfxvOXnlevCH2vbvl0AktN+xbzlPQC5HLAeFzGaoGCO3m4HbJy7fUEq8V8kcASqf/SdVYqduzPXBHFruWu9iqp2xR/PmKkDNgNEFgghCLvIbDkQBJYxnGQ3y54b0uyBIdgn5zv/CTem3Hyt5U+D4WDa9LftsBiX2+sNguvyd3X/e7ajiYElocBgaUONwkswfbL9+Vtfb0YPM5UhnsiFFg038bylzey4pwnbV+GIyv8EYtae7OFfG+kgCcm5IyAcAflWN8Ng9Oe1PMkUNK+nZjU8nVuXMZqAf9eN2YHaV/5u3Vz6y0Ci7iNezCrnknUfqnzB+coqdsQWMDtQGCBEIpMTRFSR2EoQ0Rz3wqJAsusCRNe8ZAj6MS2Ub+zz6MU00vyFaYNONs4BURqipArnsgCS2paQh7qBJaweIsVl37nITZFCLFlPSCw1OHmESz2s8QuzgvfKK8Wg/Noen/KIYF2O1Tf5uSv+DM+6nunjS3HdcUVv1N4PZ4izjs5yv/f3efUziyxQjxPGiXt24lJNV8LL0SkuIzVAhu3w/W8iTiueMkVg59Lgpokp/7LqrNSsXM9vn/ryzndz0vqNgQWcDsQWCCEIlcZweLsnycAaALL9bjeOa2CNmu++moCS3juYfLvPyYcPP8Iluiw5OX7xZ5C4RXtOPCmfTUgsNThpjVYhPUSxOdaBu4Vg/5IB1AH3bep/FUusOjrVlzF9uj2S2dXy3WC+HfJq8E+3nRd6TwZKGnfdQKLEpepWmDDdhC/D+5l/ZGhtv3FETU59V+hwKLWfooQIr/UK6nbIiP9EFlAJhBYIIQi8wUW7/PIsNscASTWETntPypJNnP4+1pThJwCWht2HCtwnltgkQu6YO/r9YkL72ntYb37AggstQgFltizzn4uCOslZLf9EKvFoPB8K3nDDiTEfJvKX4UCi+8/p7N3zieeOK12zAsFlmGS9omvh5aLkvZ92xQhLy5jtcDG7SDsHT6f7vCionQEi3OFS/1XMkUoVvtJIwEX32hThLLqNq2WZIolyAcCC4RQZJ7AYoJF4uz/57EvXmcj+qb38pOVYSeh73MLG38RvPNxT68xwu8Si+YFb0sOILCoC2X6BU+kwGMEy+OAwFIHbeFn+X/vGZlai6Bg6P56MRibsghy4azBEvVtKn8VCizBoqH+CBark6+OWrKvpXCKkPddMDWm8pld0r7FqctCvvYXNxXjMlYLbNwOObk2/xeo8lGyBote/+XUWTmxI00D8tYeqqrbmCIEbgcCC4RQZK7AEh8a773dyxBAUkPpT4lRWOisaKi7P3XHf9MRe9MsFWzxAk4XWPz1U4S3odbO6TVY6tdUEDuT0voul0JHsl/MriY4vjtdKm8/UA4EljqEdos96+Sf3O3HWenopMXRu8Sgty+jV8phCyxx36bz12VKibDI7bK924+2n/WD9UsybqfQvi7t53xzf+ZXm3LUj5MZe2Vx1wzhrqZ9J2MyiE09LuX9vRESG7VDXpyvn0d1geWaw9WRe5KgotZZidgRxI5w9JA9BbKkblPWtkNgAQVAYIEQiqRTdizg7/0C39YBuwEJ0s80g8cgOyanIUvcAGVIjmB5EGK/qHQ3NLpX8JxAYIEQirxf50Kes16yJsE2zrEv0JncL/BtHe5vN55TzwgEllys376f81m2nzgP7X++t4cKD7ER1fc65Wk00bP5C7QDAguEUORzFjKgFvh7v8C3dcBuQAICSzsQk22B/QHIAwILhFAkifRYwN/7Bb6tA3YDYFsgJtsC+wOQB0dg+fr1q3l5eUFggRCKw1khhBDCI3MpniGEEEKNr6+v5vX11R3BAgA4NrqONxVHAv7eL/BtHbAbANsCMdkW2B+APNixgsACALiARHos4O/9At/WAbsBCazB0g7EZFtgfwDyYMfK/wO9oj0BlxQ/DgAAAABJRU5ErkJggg==;" vertex="1" parent="WIyWlLk6GJQsqaUBKTNV-1">
          <mxGeometry x="-1110" y="-190" width="671.04" height="70" as="geometry" />
        </mxCell>
        <mxCell id="mXnRrFpc8J4dxXeiY_ru-74" value="" style="shape=image;verticalLabelPosition=bottom;labelBackgroundColor=#ffffff;verticalAlign=top;aspect=fixed;imageAspect=0;image=data:image/png,iVBORw0KGgoAAAANSUhEUgAABFYAAABfCAYAAADCgEO9AAAWf0lEQVR4nO2dTXLsLJBF2VJPWZB20XvQ1OGwl6GVvJnm36zXQA+q5CIhQRT1kyp0TsSNeC6XhJT5CFJXgN1///0X/vvvv/D19RUA4Nw456wvAd4I+R4XctsHcQM4FvRJW4g/QBvOueAwVgBggwH0XJDvcSG3fRA3gGNBn7SF+AO04ZwL7ufnJ3x/f1+MFecQQieWQwghhJDQ7++v+TUghBA6uMSMFWf/YIcQspNzztrwhTdCvseF3PZB3EDj9/fX+hJOC33SFuIP0AbGCkJIiAH0XJDvcSG3fRA30MBYsYM+aQvxB2gDYwUhJMQAei7I97iQ2z6IG2hgrNhBn7SF+AO0gbGCEBJiAD0X5HtcyG0fxA00MFbsoE/aQvwB2sBYQQgJMYCeC/I9LuS2D+IGcCzok7YQf4A2isaKd/pOt3PyADYVHsw2+crvZuVYhJCtGEDPBfkeF3LbB3EDOBb0SVuIP0AbuzNWVpebI8v14WtxubEyOWmY+Ohnfz0mfoBb3P0Pfgih14kB9FyQ73Eht30QN4BjQZ+0hfgDtNFlrGzSjBWnfMdfz5P+LjVhEEL2YgA9F+R7XMhtH8QNNNhjxQ76pC3EH6CNpxormnkSH5/OUJmdvpQIIWQnBtBzQb7Hhdz2QdxAA2PFDvqkLcQfoI23GivbEiL2WUHouGIAPRfke1zIbR/EDTQwVuygT9pC/AHaeLmxslSOnxx7rCB0NDGAngvyPS7ktg/iBhoYK3bQJ20h/gBtPH2PlXizWu3n+NjUhEEI2YsB9FyQ73Eht30QN9DAWLGDPmkL8Qdo46G/ClT7M8ybYuMl/RPO1g+QCKFcDKDngnyPC7ntg7gBHAv6pC3EH6CNXWMFIXQuMYCeC/I9LuS2D+IGcCzok7YQf4A2MFYQQkIMoOeCfI8Lue2DuAEcC/qkLcQfoA2MFYSQEAPouSDf40Ju+yBuoMEeK3bQJ20h/gBtYKwghIQYQM8F+R4XctsHcQMNjBU76JO2EH+ANjBWEEJCDKDngnyPC7ntg7iBBsaKHfRJW4g/QBsYKwghIQbQc0G+x4Xc9kHcQANjxQ76pC3EH6ANjBWEkBAD6Lkg3+NCbvsgbqCBsWIHfdIW4g/QBsYKQkiIAfRckO9xIbd9EDeAY0GftIX4A7SBsYIQEmIAPRfke1zIbR/EDeBY0CdtIf4AbWCsvEirc8G/uc3JubAc4N7RZ4sB9FyQ73Eht30QN4BjQZ+0JY//EibngpsWk+sJIYSwzsH7OayvbGOZgnMu+PmlrcBAVI0VC3NgT/NV28/L9iD45DZcpJYYpNfx6cZKGucj5cfq3s4iOYCuYfZJf5jXcBlUpyCG1HUOPvpsmdJj6qyzj753HbTFoLm1ebmmbDxfpuT7WQvJvfiQXlZ8zZdz7bWVx8e00OhAK1hFHLacXgsMqej/QPJ7kXPxuzzu8Bp4GOmDuIEGe6zYQZ+0JYv/Msla5476b529rCOyOq9U+4XsPH5eL+fLvr/VGVuNptUd17b+zq23k90rQIWPN1aO2gbGynH1CddoqdxYKQ1IFWMlMTmWSRmsEnJjxQcvTI1bm+vss4FumfYMnORelim4tBCIz7lMt0G72FYan+sg/uq3KE8kLZiyOJQQxUZcyAT5fyEpuNK4w+vgYaQP4gYaGCt20CdtuctYqdR/y5TXR/Kzeu0XHZWZJ1v9J2vBS402TT6vD5cpOO+j+qRgrLxjZgwMw13GyuTkbI7p+vmSfG/dHs6iB7X0GO13c9SO9nk6k2RVrrHWXun6Wx+8S9elxUqL3VL4eY7O7Z2M4abaQ3B8P0tDe3vn1uK8l8fW/KQ5WJR7f+T+9+JdujckY3rjOcZKC5qxMs/xQ3jUZvqwnj7Y6y0k91I7X+G+sra0+FzegnzKCw6Z70JhkZHO5CkbK7kx1ZIreAY8jPRB3EADY8UO+qQtjxgr6nfkyaKaYKf222s/a+Naoy0tn2OswOPcbaykhskS/Xt7SI2NCe+kARH/PLm2mQOlc2vXuNde6fpjpQ/fJQMmvq5HjZXUPPDRuTfzIW0/jt9mRLQYKy3nTuNci2vtOC0OPmo7Nqj8nde4l+tavJmxUtbeUqDLWNa+FKh1bapqrKzx24e4zeTBvsnIUWasbMdUj6+1pRtP+7NnjoPI9zoH733wUb7V2StavNY5Oq42Q6WwvAqeDg8jfRA30MBYsYM+aUsaf1mvhbb6r1hnxTXBXu13O39aQ2xtys+3Gi2pOzazZMVYgedyt7FSeliNH/Ljh+LUMIhnt5RmDKSzFe4xVmrt1a4/VunBu3Zdjxor6T2l7WjLitL4tcxYaT13ek21uNaOq8Uhndm0HXvP/ffkGmOlrqfMWBHHt+2rUTJWbudN2ozeWLQZGYlJFA+Ue8ZMsa2ysfIpxkFmrGSzc7RCJb+/y7rp7Y2RNGTkni1t/x/gcXgY6YO4gQbGih30SVvi+GemyuXD/frvTmOlWPsVDBD9ZV5UoyV13LSk112ZsYu5Ao08zVjZHmpbjI4p+p1mrPikndio6TFWtvYeNVZq1/UKY6XlAbjXWNk7d4ux0jLT5RFjpckA6Mg1xkpDXP+oGSvJ55XlNC3GR9FY+Tt+Lgyu9yxf0dfkVpcCVdsqLQX6HOOgbqwoJpG2R0pWMNVmpbTmCx6Fh5E+iBvAsaBP2nLvjJWYv/rvnqVAtdpP20x2q0FKS4HEuUvLwEu1CTULtPM0YyVcv5su76kt1ygtJ4kNgyX5+dGlQI8YK7XrajFWpuh38bIdrb3UxNEU35u2FKjUXsu5X7kUaM9Y6bl/Ldf3xBvJ/+c3SsZKvslp/PM6++ihum3pR81YuS0zyR/6vc83ly20IO9FDKjXNyvpmt3k/vK28vhom7MdGW3pl5gu6/L70zeBy3f211cRFZYXwdPhYaQP4gZwLOiTttyzx0q5/lPqrOyzvdpPqyflZ3JfN1mjZbNaWAoET+apxsq2V0g6C6W0X0m65GN72F2UY1blmJ7Nax8xVvauq2asxNfl3f4MilJsSt/ZTIWlob17z926eW1LflqNlZZr3Lumlvtn81o9pjfKxkp1aU3Y/ozdVQ0P0lVjJWwDojJTwrUuu9FNELmsJ/4/1dLWgH9uWeyVktzvzlspsXxPFC6fG59PhoeRPogbwLGgT9pSNlZutZ6s30pjfl4zyRc1O7WfYnLoG+THZk5q1JResCXXHS9JwliBRqrGCkLofKKAORfke1zIbR/EDTTYY8UO+qQtuzNW3oS6v8urMbpX+EwwVhBCQq8rYNK3AaU3FkdvYywoWMeF3PZB3EADY8UO+qQtefyvtdZbDYfaDOpXNXmZcUv9CK1grCCEhChgzgX5Hhdy2wdxAw2MFTvok7YQf4A2MFYQQkIMoOeCfI8Lue2DuIEGxood9ElbiD9AG8654H5+fsL39zfGCkIoaMtoEEIIoTPr9/fX/BoQQggdXGLGCgCcGuec9SXAGyHf40Ju+yBuAMeCPmkL8QdoA2MFAAQMoOeCfI8Lue2DuAEcC/qkLcQfoA2MFQAQMICeC/I9LuS2D+IGcCzok7YQf4A2MFYAQMAAei7I97iQ2z6IG2iwea0d9ElbiD9AGxgrACBgAD0X5HtcyG0fxA00MFbsoE/aksd/CZNzwU2LyfWEEEJY5+D9HNZXtrFMwTkX/PzSVmAgMFYAQCAH0DXMXu52fRlgljC5KYghdZ2Djz5bpvSYOuvso+9dB20xaG5tXq4pG8+XKfl+1kLhXrT283u4nTttfwmT8+FTx12tYBX3veX0WmBIRf8Hkt+LWIrffW6sPg0eRvogbqCBsWIHfdKWLP7LJE2VO+q/dfayjsjqvFLtF7Lz+Hm9nC/7/lZnbHWfVndc2/o7t95Odq8AFTBWAECQGyulAalirCQmxzIpg1VCbqz44DMD43KedfbZQLdMewaOZojcfk6NlWVK3sYs0/X38XkKJs8HkRZM2X2XEMVGYi7F/xeSgutisuz/f4DH4WGkD+IGGhgrdtAnbbnLWKnUf8uUmibpZ/XaLzoqM0+2+k3WgpcadpryF2eX6/RRfVIwVt4xMwaGAWMFAASvMFZa0IyVeZ70twnpw3rTrJHcBIkHYNF+dn79PPtmzvGR+S4UFhk7s3ai+OUm2GfP8PkkeBjpg7iBBsaKHfRJWx4xVtTvyJNFNcFO7bfXftbGtYZdWj7HWIHHwVgBAMHeUqDLWNa+FKjVeFCNlTU2L+I2kwf7JiMnOWadg48e8EX71fNFMfnkqSpXRL7XOXjvg4+n6Wr3qMVnnaPjajNUPn+Wz6fAw0gfxA3gWNAnbUnjny2dbqn/inVVXBPs1X6386c1xNam/Hx7OajUf34O64qxAs8FYwUABE+ZsSKOb9tXo2Ss3M6btBm9sWibOVIyiZT2G4yVaa7NavkcMmMlmwmkFSp5UXNZN729MZKGjNyzhX1W3gUPI30QN4BjQZ+0JY6/th9dU/13p7FSrP0KBoj+Mi+qYZOacVrS667M2MVcgUYwVgBA0G6sJJ9Xls+0GB9FY+Xv+LkwuPYuX6m037gUKN807fOoGyvKmyFtj5SsYKrFujVf8Cg8jPRB3ACOBX3SlntnrMT81X/3LAWq1X7aZrJbDVJaCiTOXVpWXqpNqFmgHYwVABC0GSv5Jqfxz+vso4fqtqUfNWPltswkf+j3Pt/IttBCu7GyvWlJ1/BeXnGI8zRv9npQtKVfpeVSIRRMssxY0Wa63I7/5Hh9EjyM9EHcQIM9VuygT9pyzx4r5fpPqauyz/ZqP62Ok5/Jfd1kDZvNamEpEDwZjBUAELQaK9nSGu1P5tX26UjPVjNWwjYgKjMlCg/wpettM1aU+ysO7GUT4RPICiaxV0pyXztvpdQ/t5ycD1PlffAw0gdxAw2MFTvok7aUjZVbrSfrt9KYny/JlnXXTu2nmBz6BvmxmZMaNYW/YJhed7wkCWMFGsFYAQABBcy5IN/jQm77IG6ggbFiB33Slt0ZK29C3d/l1RjdK3wmGCsAIHhdAZO+DSi9sTh6G2NBwTou5LYP4gYaGCt20CdtyeN/rbXeajjUZlC/qsnLjFvqR2gFYwUABBQw54J8jwu57YO4gQbGih30SVuIP0AbGCsAIGAAPRfke1zIbR/EDeBY0CdtIf4AbTjngvv5+Qnf39/h6+sr/Pv3DyF0YmnLaBBCCKEz669oRgghhEpixgoAbDjHm4kzQb7Hhdz2QdwAjgV90hbiD9AGxgoACBhAzwX5Hhdy2wdxAw32WLGDPmkL8QdoA2MFAAQMoOeCfI8Lue2DuIEGxood9ElbiD9AGxgrACBgAD0X5HtcyG0fxA00MFbsoE/aQvwB2sBYAQABA+i5IN/jQm77IG6ggbFiB33Sljz+S5icC25aTK4nhBDCOgfv57C+so1lCs654OeXtgIDgbECAAI5gC5hclMQQ+c6B//32RpmH++G7UM+/tw3AK+zjwax67Fi8Nyu6dJ2dtplSr6fXru2i7cP87rdS+Uekliss5fnUa8zbX8KS/U6msL0NLSCdZnia7rew7XAkIruL/m9KETE795/j2eFh5E+iBtoYKzYQZ+0JYv/MsmaTtSFsoZITYn9uqmhlgq3WnGdvfL9rc64p67T28nuFaACxgoACO43VqIBa5lU88FPkxh0a+TGig9eGCi3a1pnnw14y9T2dkG2c7uXaUo/v96X93nhkBg48rO92JWu472kBdMyNZpgotiIC5kg7zO9Z+X/CLwGHkb6IG4Ax4I+actdxkrycmuZ7q2byjVfdFRmnmx1lKwB76nrCsbKO2bGwDBgrACA4CFjJfv+9vvC7BIFzViZ50l/q5AZFckDfnM70bUu6TmVzxWDJG//E42VQmGRkeazbKzk5ld7juAxeBjpg7gBHAv6pC2PGCvqd+TJkrqpUvPttZ+1cUddh7ECTwBjBQAED89YiQegeEBqnE6pGitr/BYivqbkAb+2DKjaTnwvyTm3e2gpHMT1fKCxss7Bey+XKWk50+5fLG+qzVBpN9ngMXgY6YO4ARwL+qQtafyzuqWwFChbEtxUN9Vqvtv50xpia1N+fkddh7ECTwBjBQAED+2xkgw+JZOkRvGYv3aTa4oMm9ZlQHk7271c20rOOS3JfY9srGQzgLRCJS9qLuumo/1joi/IPVvYZ+Vd8DDSB3EDDfZYsYM+aUscf7VmUWejJPub3GmsFGu+ggGimjn31HW1GbuYK9AIxgoACHJjJXkILs5YketcbxuDSe2ZCDUz5mKczIVBtnUZi9ZOei9bu4VlR/dMaS3GrnQd76VurChvhrQ9UrKCqTYr5b48QT88jPRB3EADY8UO+qQt985Yifl74dVRN6k1nzb7eatBSkuBWuq6Ym1CzQLtYKwAgGBvM1P5c7IUaG9WR8NSneosl7/lJvnDv/f5RrY16saK8vZDm6kj2ss/q8eudB3vReZbmS6bmEPqrKAsr9pMl9vx7LD/HngY6YO4gQbGih30SVvu2WNlnX009sc1RUvdtFfzaS9t5GdyX7d76jqWAsHjYKwAgCAvYGrLfdLNa28P3vqynP3lQHvLhy4DozJjovAg39aOci+pqaC+CdmbjVNfKqVfx3vJ8p38KWhZA9XfSqmxSP+0NKbK2+BhpA/iBhoYK3bQJ20pGyu3mcnF2cqakVKsm3ZqPsXk0DfIj82c1rounWUdLUnCWIFGMFYAQEABcy7I97iQ2z6IG2hgrNhBn7Rld8bKmzB5EWV0r/CZYKwAgOD1BYy+90rL/ivHamMMKFjHhdz2QdwAjgV90pY8/tca662GQz5D+vVNXmbcUjdCKxgrACCggDkX5HtcyG0fxA3gWNAnbSH+AG1grACAgAH0XJDvcSG3fRA3gGNBn7SF+AO04ZwL7ufnJ3x/f4evr6/w798/hNCJpS2fQQghhM6s399f82tACCF0cDFjBQA2nOPNxJkg3+NCbvsgbqDB5rV20CdtIf4AbWCsAICAAfRckO9xIbd9EDfQwFixgz5pC/EHaANjBQAEDKDngnyPC7ntg7iBBsaKHfRJW4g/QBsYKwAgYAA9F+R7XMhtH8QNNDBW7KBP2kL8AdrAWAEAAQPouSDf40Ju+yBuAMeCPmkL8QdoA2MFAAQMoOeCfI8Lue2DuAEcC/qkLcQfoA2MFQAQMICeC/I9LuS2D+IGcCzok7YQf4A2MFYAQMAAei7I97iQ2z6IG2iwx4od9ElbiD9AGxgrACBgAD0X5HtcyG0fxA00MFbsoE/aQvwB2sBYAQABA+i5IN/jQm77IG6ggbFiB33SFuIP0AbGCgAIGEDPBfkeF3LbB3EDDYwVO+iTthB/gDYwVgBAwAB6Lsj3uJDbPogbaGCs2EGftIX4A7SBsQIAAgbQc0G+x4Xc9kHcAI4FfdIW4g/QBsYKAAgYQM8F+R4XctsHcQM4FvRJW4g/QBsYKwAgYAA9F+R7XMhtH8QN4FjQJ20h/gBtYKwAgIAB9FyQ73Eht30QN9BgjxU76JO2EH+ANjBWAEDAAHouyPe4kNs+iBtoYKzYQZ+0hfgDtOGcC+7n5yd8f3+Hr6+v8H//+z8IoRPLOYcQQgihSL+/v+bXgBBC6OCKZ6xYP9QhhGzlHG8mzgT5Hhdy2wdxAw1mrNhBn7SF+AO0gbGCEBJiAD0X5HtcyG0fxA00MFbsoE/aQvwB2nDOhf8HzEHAKWM/TYoAAAAASUVORK5CYII=;" vertex="1" parent="WIyWlLk6GJQsqaUBKTNV-1">
          <mxGeometry x="-1110" y="-110" width="670" height="57.35" as="geometry" />
        </mxCell>
      </root>
    </mxGraphModel>
  </diagram>
</mxfile>
